<svg xmlns="http://www.w3.org/2000/svg" xmlns:xlink="http://www.w3.org/1999/xlink" width="500" zoomAndPan="magnify" viewBox="0 0 375 187.499995" height="250" preserveAspectRatio="xMidYMid meet" version="1.2"><defs><clipPath id="a3a40fd989"><path d="M 143 13 L 187 13 L 187 37 L 143 37 Z M 143 13 "/></clipPath><clipPath id="ff0cf1ede3"><path d="M 193.382812 -94.726562 L 355.761719 67.652344 L 194.96875 228.445312 L 32.589844 66.066406 Z M 193.382812 -94.726562 "/></clipPath><clipPath id="664fd70689"><path d="M 193.382812 -94.726562 L 355.761719 67.652344 L 194.96875 228.445312 L 32.589844 66.066406 Z M 193.382812 -94.726562 "/></clipPath><clipPath id="43a93e0578"><path d="M 64 14 L 273 14 L 273 121 L 64 121 Z M 64 14 "/></clipPath><clipPath id="35b7e018da"><path d="M 193.382812 -94.726562 L 355.761719 67.652344 L 194.96875 228.445312 L 32.589844 66.066406 Z M 193.382812 -94.726562 "/></clipPath><clipPath id="77295722c4"><path d="M 193.382812 -94.726562 L 355.761719 67.652344 L 194.96875 228.445312 L 32.589844 66.066406 Z M 193.382812 -94.726562 "/></clipPath><clipPath id="245d7aeb86"><path d="M 249 12 L 311 12 L 311 123 L 249 123 Z M 249 12 "/></clipPath><clipPath id="bd6c26da87"><path d="M 193.382812 -94.726562 L 355.761719 67.652344 L 194.96875 228.445312 L 32.589844 66.066406 Z M 193.382812 -94.726562 "/></clipPath><clipPath id="8497ade144"><path d="M 193.382812 -94.726562 L 355.761719 67.652344 L 194.96875 228.445312 L 32.589844 66.066406 Z M 193.382812 -94.726562 "/></clipPath><clipPath id="be953b3c13"><path d="M 249 20 L 281 20 L 281 116 L 249 116 Z M 249 20 "/></clipPath><clipPath id="ad7ccd4621"><path d="M 193.382812 -94.726562 L 355.761719 67.652344 L 194.96875 228.445312 L 32.589844 66.066406 Z M 193.382812 -94.726562 "/></clipPath><clipPath id="b6d9bd5906"><path d="M 193.382812 -94.726562 L 355.761719 67.652344 L 194.96875 228.445312 L 32.589844 66.066406 Z M 193.382812 -94.726562 "/></clipPath><clipPath id="c0b4385349"><path d="M 62 10 L 314 10 L 314 125 L 62 125 Z M 62 10 "/></clipPath><clipPath id="913cf3c4a3"><path d="M 193.382812 -94.726562 L 355.761719 67.652344 L 194.96875 228.445312 L 32.589844 66.066406 Z M 193.382812 -94.726562 "/></clipPath><clipPath id="adb5e93b79"><path d="M 193.382812 -94.726562 L 355.761719 67.652344 L 194.96875 228.445312 L 32.589844 66.066406 Z M 193.382812 -94.726562 "/></clipPath></defs><g id="b04dd52201"><g style="fill:#000000;fill-opacity:1;"><g transform="translate(61.37008, 169.124233)"><path style="stroke:none" d="M 12.453125 -8.6875 C 13.273438 -7.726562 14.171875 -7.054688 15.140625 -6.671875 C 16.109375 -6.285156 17.113281 -6.09375 18.15625 -6.09375 C 19.238281 -6.09375 20.222656 -6.289062 21.109375 -6.6875 C 21.992188 -7.082031 22.753906 -7.707031 23.390625 -8.5625 C 24.023438 -9.425781 24.515625 -10.550781 24.859375 -11.9375 C 25.203125 -13.320312 25.375 -14.992188 25.375 -16.953125 C 25.375 -18.691406 25.234375 -20.171875 24.953125 -21.390625 C 24.679688 -22.617188 24.273438 -23.625 23.734375 -24.40625 C 23.191406 -25.195312 22.523438 -25.773438 21.734375 -26.140625 C 20.941406 -26.503906 20.023438 -26.6875 18.984375 -26.6875 C 17.609375 -26.6875 16.410156 -26.378906 15.390625 -25.765625 C 14.378906 -25.160156 13.398438 -24.273438 12.453125 -23.109375 Z M 12.453125 -29.109375 C 13.742188 -30.398438 15.175781 -31.4375 16.75 -32.21875 C 18.320312 -33.007812 20.085938 -33.40625 22.046875 -33.40625 C 23.941406 -33.40625 25.648438 -33.023438 27.171875 -32.265625 C 28.691406 -31.515625 29.988281 -30.4375 31.0625 -29.03125 C 32.144531 -27.632812 32.976562 -25.941406 33.5625 -23.953125 C 34.144531 -21.960938 34.4375 -19.734375 34.4375 -17.265625 C 34.4375 -14.609375 34.097656 -12.1875 33.421875 -10 C 32.753906 -7.820312 31.800781 -5.957031 30.5625 -4.40625 C 29.332031 -2.851562 27.859375 -1.648438 26.140625 -0.796875 C 24.429688 0.0546875 22.523438 0.484375 20.421875 0.484375 C 19.398438 0.484375 18.484375 0.378906 17.671875 0.171875 C 16.867188 -0.0234375 16.125 -0.304688 15.4375 -0.671875 C 14.757812 -1.035156 14.132812 -1.46875 13.5625 -1.96875 C 12.988281 -2.46875 12.445312 -3.023438 11.9375 -3.640625 L 11.578125 -1.65625 C 11.429688 -1.039062 11.1875 -0.609375 10.84375 -0.359375 C 10.507812 -0.117188 10.054688 0 9.484375 0 L 3.640625 0 L 3.640625 -47.578125 L 12.453125 -47.578125 Z M 12.453125 -29.109375 "/></g></g><g style="fill:#000000;fill-opacity:1;"><g transform="translate(97.814655, 169.124233)"><path style="stroke:none" d="M 11.90625 -27.484375 C 12.945312 -29.347656 14.144531 -30.820312 15.5 -31.90625 C 16.863281 -33 18.460938 -33.546875 20.296875 -33.546875 C 21.785156 -33.546875 23 -33.191406 23.9375 -32.484375 L 23.359375 -25.984375 C 23.253906 -25.554688 23.085938 -25.257812 22.859375 -25.09375 C 22.640625 -24.9375 22.335938 -24.859375 21.953125 -24.859375 C 21.617188 -24.859375 21.128906 -24.90625 20.484375 -25 C 19.847656 -25.09375 19.253906 -25.140625 18.703125 -25.140625 C 17.890625 -25.140625 17.171875 -25.023438 16.546875 -24.796875 C 15.921875 -24.566406 15.363281 -24.238281 14.875 -23.8125 C 14.382812 -23.382812 13.941406 -22.859375 13.546875 -22.234375 C 13.148438 -21.617188 12.785156 -20.921875 12.453125 -20.140625 L 12.453125 0 L 3.640625 0 L 3.640625 -32.90625 L 8.84375 -32.90625 C 9.738281 -32.90625 10.351562 -32.742188 10.6875 -32.421875 C 11.03125 -32.109375 11.273438 -31.554688 11.421875 -30.765625 Z M 11.90625 -27.484375 "/></g></g><g style="fill:#000000;fill-opacity:1;"><g transform="translate(121.877013, 169.124233)"><path style="stroke:none" d="M 12.703125 -32.90625 L 12.703125 0 L 3.890625 0 L 3.890625 -32.90625 Z M 13.75 -42.25 C 13.75 -41.507812 13.597656 -40.816406 13.296875 -40.171875 C 13.003906 -39.535156 12.609375 -38.972656 12.109375 -38.484375 C 11.609375 -37.992188 11.019531 -37.609375 10.34375 -37.328125 C 9.675781 -37.054688 8.960938 -36.921875 8.203125 -36.921875 C 7.472656 -36.921875 6.785156 -37.054688 6.140625 -37.328125 C 5.492188 -37.609375 4.925781 -37.992188 4.4375 -38.484375 C 3.945312 -38.972656 3.554688 -39.535156 3.265625 -40.171875 C 2.984375 -40.816406 2.84375 -41.507812 2.84375 -42.25 C 2.84375 -43 2.984375 -43.695312 3.265625 -44.34375 C 3.554688 -44.988281 3.945312 -45.554688 4.4375 -46.046875 C 4.925781 -46.535156 5.492188 -46.914062 6.140625 -47.1875 C 6.785156 -47.46875 7.472656 -47.609375 8.203125 -47.609375 C 8.960938 -47.609375 9.675781 -47.46875 10.34375 -47.1875 C 11.019531 -46.914062 11.609375 -46.535156 12.109375 -46.046875 C 12.609375 -45.554688 13.003906 -44.988281 13.296875 -44.34375 C 13.597656 -43.695312 13.75 -43 13.75 -42.25 Z M 13.75 -42.25 "/></g></g><g style="fill:#000000;fill-opacity:1;"><g transform="translate(138.471737, 169.124233)"><path style="stroke:none" d="M 15.890625 -17.6875 C 17.703125 -17.6875 19.035156 -18.140625 19.890625 -19.046875 C 20.753906 -19.960938 21.1875 -21.144531 21.1875 -22.59375 C 21.1875 -24.101562 20.753906 -25.289062 19.890625 -26.15625 C 19.035156 -27.019531 17.703125 -27.453125 15.890625 -27.453125 C 14.085938 -27.453125 12.757812 -27.019531 11.90625 -26.15625 C 11.050781 -25.289062 10.625 -24.101562 10.625 -22.59375 C 10.625 -21.164062 11.054688 -19.988281 11.921875 -19.0625 C 12.785156 -18.144531 14.109375 -17.6875 15.890625 -17.6875 Z M 24.21875 1.34375 C 24.21875 0.769531 24.035156 0.300781 23.671875 -0.0625 C 23.316406 -0.425781 22.832031 -0.710938 22.21875 -0.921875 C 21.613281 -1.140625 20.894531 -1.296875 20.0625 -1.390625 C 19.238281 -1.484375 18.359375 -1.554688 17.421875 -1.609375 C 16.484375 -1.660156 15.515625 -1.707031 14.515625 -1.75 C 13.515625 -1.789062 12.535156 -1.867188 11.578125 -1.984375 C 10.835938 -1.535156 10.226562 -1.003906 9.75 -0.390625 C 9.269531 0.210938 9.03125 0.894531 9.03125 1.65625 C 9.03125 2.1875 9.148438 2.675781 9.390625 3.125 C 9.640625 3.570312 10.050781 3.953125 10.625 4.265625 C 11.195312 4.585938 11.953125 4.835938 12.890625 5.015625 C 13.828125 5.203125 15 5.296875 16.40625 5.296875 C 17.851562 5.296875 19.078125 5.195312 20.078125 5 C 21.078125 4.8125 21.882812 4.539062 22.5 4.1875 C 23.113281 3.84375 23.550781 3.425781 23.8125 2.9375 C 24.082031 2.445312 24.21875 1.914062 24.21875 1.34375 Z M 32.96875 -31.8125 L 32.96875 -28.59375 C 32.96875 -28.082031 32.820312 -27.675781 32.53125 -27.375 C 32.25 -27.082031 31.773438 -26.863281 31.109375 -26.71875 L 28.4375 -26.171875 C 28.800781 -25.128906 28.984375 -24.007812 28.984375 -22.8125 C 28.984375 -21.175781 28.644531 -19.703125 27.96875 -18.390625 C 27.300781 -17.085938 26.378906 -15.972656 25.203125 -15.046875 C 24.035156 -14.117188 22.65625 -13.40625 21.0625 -12.90625 C 19.46875 -12.40625 17.742188 -12.15625 15.890625 -12.15625 C 14.722656 -12.15625 13.628906 -12.253906 12.609375 -12.453125 C 11.710938 -11.890625 11.265625 -11.28125 11.265625 -10.625 C 11.265625 -10.007812 11.566406 -9.5625 12.171875 -9.28125 C 12.773438 -9.007812 13.570312 -8.8125 14.5625 -8.6875 C 15.550781 -8.570312 16.675781 -8.5 17.9375 -8.46875 C 19.207031 -8.4375 20.5 -8.367188 21.8125 -8.265625 C 23.125 -8.160156 24.410156 -7.972656 25.671875 -7.703125 C 26.941406 -7.441406 28.070312 -7.003906 29.0625 -6.390625 C 30.050781 -5.785156 30.847656 -4.984375 31.453125 -3.984375 C 32.054688 -2.984375 32.359375 -1.695312 32.359375 -0.125 C 32.359375 1.34375 31.992188 2.765625 31.265625 4.140625 C 30.546875 5.523438 29.5 6.757812 28.125 7.84375 C 26.757812 8.9375 25.078125 9.8125 23.078125 10.46875 C 21.078125 11.125 18.800781 11.453125 16.25 11.453125 C 13.71875 11.453125 11.519531 11.210938 9.65625 10.734375 C 7.789062 10.253906 6.242188 9.613281 5.015625 8.8125 C 3.796875 8.019531 2.890625 7.101562 2.296875 6.0625 C 1.703125 5.019531 1.40625 3.9375 1.40625 2.8125 C 1.40625 1.34375 1.847656 0.0976562 2.734375 -0.921875 C 3.628906 -1.941406 4.867188 -2.765625 6.453125 -3.390625 C 5.617188 -3.847656 4.953125 -4.453125 4.453125 -5.203125 C 3.953125 -5.960938 3.703125 -6.953125 3.703125 -8.171875 C 3.703125 -9.148438 4.054688 -10.179688 4.765625 -11.265625 C 5.484375 -12.347656 6.585938 -13.253906 8.078125 -13.984375 C 6.390625 -14.867188 5.054688 -16.0625 4.078125 -17.5625 C 3.097656 -19.0625 2.609375 -20.8125 2.609375 -22.8125 C 2.609375 -24.457031 2.941406 -25.9375 3.609375 -27.25 C 4.285156 -28.570312 5.21875 -29.695312 6.40625 -30.625 C 7.601562 -31.550781 9.007812 -32.257812 10.625 -32.75 C 12.238281 -33.238281 13.992188 -33.484375 15.890625 -33.484375 C 18.703125 -33.484375 21.179688 -32.925781 23.328125 -31.8125 Z M 32.96875 -31.8125 "/></g></g><g style="fill:#000000;fill-opacity:1;"><g transform="translate(172.395184, 169.124233)"><path style="stroke:none" d="M 12.453125 -29.6875 C 13.066406 -30.238281 13.707031 -30.738281 14.375 -31.1875 C 15.039062 -31.644531 15.753906 -32.039062 16.515625 -32.375 C 17.273438 -32.707031 18.082031 -32.960938 18.9375 -33.140625 C 19.800781 -33.316406 20.734375 -33.40625 21.734375 -33.40625 C 23.523438 -33.40625 25.109375 -33.097656 26.484375 -32.484375 C 27.867188 -31.867188 29.035156 -31.007812 29.984375 -29.90625 C 30.929688 -28.800781 31.644531 -27.476562 32.125 -25.9375 C 32.601562 -24.40625 32.84375 -22.726562 32.84375 -20.90625 L 32.84375 0 L 24.0625 0 L 24.0625 -20.90625 C 24.0625 -22.726562 23.632812 -24.144531 22.78125 -25.15625 C 21.9375 -26.175781 20.679688 -26.6875 19.015625 -26.6875 C 17.785156 -26.6875 16.628906 -26.414062 15.546875 -25.875 C 14.460938 -25.34375 13.429688 -24.597656 12.453125 -23.640625 L 12.453125 0 L 3.640625 0 L 3.640625 -47.578125 L 12.453125 -47.578125 Z M 12.453125 -29.6875 "/></g></g><g style="fill:#000000;fill-opacity:1;"><g transform="translate(208.586867, 169.124233)"><path style="stroke:none" d="M 3.890625 -6.890625 C 3.890625 -7.035156 3.890625 -7.207031 3.890625 -7.40625 C 3.890625 -7.613281 3.90625 -7.914062 3.9375 -8.3125 C 3.96875 -8.707031 4.019531 -9.226562 4.09375 -9.875 C 4.175781 -10.519531 4.28125 -11.367188 4.40625 -12.421875 L 6.15625 -26.578125 L 3.28125 -26.578125 C 2.863281 -26.578125 2.519531 -26.726562 2.25 -27.03125 C 1.976562 -27.332031 1.890625 -27.78125 1.984375 -28.375 L 2.390625 -31.8125 L 7.375 -32.78125 L 10.078125 -41.296875 C 10.378906 -42.253906 11.03125 -42.734375 12.03125 -42.734375 L 16.75 -42.734375 L 15.515625 -32.71875 L 23.203125 -32.71875 L 22.46875 -26.578125 L 14.78125 -26.578125 L 13.078125 -12.890625 C 12.972656 -12.015625 12.890625 -11.320312 12.828125 -10.8125 C 12.765625 -10.300781 12.71875 -9.90625 12.6875 -9.625 C 12.65625 -9.351562 12.640625 -9.171875 12.640625 -9.078125 C 12.640625 -8.984375 12.640625 -8.914062 12.640625 -8.875 C 12.640625 -8.125 12.804688 -7.53125 13.140625 -7.09375 C 13.484375 -6.664062 14 -6.453125 14.6875 -6.453125 C 15.0625 -6.453125 15.382812 -6.5 15.65625 -6.59375 C 15.9375 -6.6875 16.175781 -6.789062 16.375 -6.90625 C 16.582031 -7.019531 16.769531 -7.125 16.9375 -7.21875 C 17.113281 -7.320312 17.296875 -7.375 17.484375 -7.375 C 17.765625 -7.375 17.96875 -7.3125 18.09375 -7.1875 C 18.21875 -7.070312 18.347656 -6.878906 18.484375 -6.609375 L 20.390625 -2.390625 C 19.160156 -1.429688 17.8125 -0.707031 16.34375 -0.21875 C 14.875 0.269531 13.394531 0.515625 11.90625 0.515625 C 9.476562 0.515625 7.554688 -0.140625 6.140625 -1.453125 C 4.722656 -2.765625 3.972656 -4.578125 3.890625 -6.890625 Z M 3.890625 -6.890625 "/></g></g><g style="fill:#000000;fill-opacity:1;"><g transform="translate(232.23435, 169.124233)"><path style="stroke:none" d="M 18.34375 -27.3125 C 17.414062 -27.3125 16.535156 -27.113281 15.703125 -26.71875 C 14.867188 -26.332031 14.117188 -25.78125 13.453125 -25.0625 C 12.785156 -24.351562 12.195312 -23.5 11.6875 -22.5 C 11.175781 -21.5 10.757812 -20.378906 10.4375 -19.140625 C 12.800781 -19.484375 14.707031 -19.851562 16.15625 -20.25 C 17.613281 -20.644531 18.742188 -21.070312 19.546875 -21.53125 C 20.347656 -21.988281 20.878906 -22.484375 21.140625 -23.015625 C 21.410156 -23.546875 21.546875 -24.117188 21.546875 -24.734375 C 21.546875 -25.035156 21.476562 -25.335938 21.34375 -25.640625 C 21.21875 -25.953125 21.023438 -26.226562 20.765625 -26.46875 C 20.515625 -26.71875 20.1875 -26.921875 19.78125 -27.078125 C 19.382812 -27.234375 18.90625 -27.3125 18.34375 -27.3125 Z M 9.734375 -13.5 C 9.734375 -8.625 11.785156 -6.1875 15.890625 -6.1875 C 17.253906 -6.1875 18.363281 -6.363281 19.21875 -6.71875 C 20.082031 -7.070312 20.820312 -7.453125 21.4375 -7.859375 C 22.0625 -8.273438 22.632812 -8.660156 23.15625 -9.015625 C 23.675781 -9.367188 24.273438 -9.546875 24.953125 -9.546875 C 25.253906 -9.546875 25.535156 -9.472656 25.796875 -9.328125 C 26.066406 -9.191406 26.304688 -9.007812 26.515625 -8.78125 L 28.75 -6.09375 C 27.601562 -4.945312 26.488281 -3.960938 25.40625 -3.140625 C 24.320312 -2.328125 23.191406 -1.644531 22.015625 -1.09375 C 20.847656 -0.550781 19.625 -0.15625 18.34375 0.09375 C 17.070312 0.351562 15.671875 0.484375 14.140625 0.484375 C 12.203125 0.484375 10.4375 0.15625 8.84375 -0.5 C 7.25 -1.164062 5.878906 -2.097656 4.734375 -3.296875 C 3.597656 -4.503906 2.71875 -5.953125 2.09375 -7.640625 C 1.46875 -9.335938 1.15625 -11.226562 1.15625 -13.3125 C 1.15625 -15.050781 1.34375 -16.75 1.71875 -18.40625 C 2.101562 -20.070312 2.65625 -21.648438 3.375 -23.140625 C 4.101562 -24.628906 4.984375 -25.992188 6.015625 -27.234375 C 7.046875 -28.484375 8.21875 -29.554688 9.53125 -30.453125 C 10.851562 -31.359375 12.296875 -32.066406 13.859375 -32.578125 C 15.429688 -33.085938 17.097656 -33.34375 18.859375 -33.34375 C 20.585938 -33.34375 22.113281 -33.09375 23.4375 -32.59375 C 24.769531 -32.09375 25.878906 -31.441406 26.765625 -30.640625 C 27.660156 -29.847656 28.335938 -28.960938 28.796875 -27.984375 C 29.253906 -27.003906 29.484375 -26.023438 29.484375 -25.046875 C 29.484375 -23.578125 29.1875 -22.222656 28.59375 -20.984375 C 28 -19.753906 26.957031 -18.65625 25.46875 -17.6875 C 23.976562 -16.726562 21.957031 -15.898438 19.40625 -15.203125 C 16.851562 -14.515625 13.628906 -13.976562 9.734375 -13.59375 Z M 9.734375 -13.5 "/></g></g><g style="fill:#000000;fill-opacity:1;"><g transform="translate(263.540942, 169.124233)"><path style="stroke:none" d="M 23.265625 -26.390625 C 23.003906 -26.023438 22.75 -25.765625 22.5 -25.609375 C 22.257812 -25.453125 21.960938 -25.375 21.609375 -25.375 C 21.203125 -25.375 20.800781 -25.476562 20.40625 -25.6875 C 20.007812 -25.90625 19.566406 -26.132812 19.078125 -26.375 C 18.585938 -26.625 18.03125 -26.851562 17.40625 -27.0625 C 16.78125 -27.269531 16.039062 -27.375 15.1875 -27.375 C 13.59375 -27.375 12.40625 -27.035156 11.625 -26.359375 C 10.851562 -25.679688 10.46875 -24.832031 10.46875 -23.8125 C 10.46875 -22.976562 10.773438 -22.3125 11.390625 -21.8125 C 12.003906 -21.3125 12.78125 -20.863281 13.71875 -20.46875 C 14.65625 -20.070312 15.664062 -19.671875 16.75 -19.265625 C 17.832031 -18.867188 18.84375 -18.347656 19.78125 -17.703125 C 20.71875 -17.066406 21.492188 -16.25 22.109375 -15.25 C 22.734375 -14.25 23.046875 -12.972656 23.046875 -11.421875 C 23.046875 -9.804688 22.722656 -8.273438 22.078125 -6.828125 C 21.441406 -5.378906 20.519531 -4.113281 19.3125 -3.03125 C 18.113281 -1.945312 16.664062 -1.082031 14.96875 -0.4375 C 13.269531 0.195312 11.363281 0.515625 9.25 0.515625 C 8.207031 0.515625 7.191406 0.410156 6.203125 0.203125 C 5.210938 0.00390625 4.273438 -0.28125 3.390625 -0.65625 C 2.515625 -1.03125 1.71875 -1.460938 1 -1.953125 C 0.289062 -2.441406 -0.304688 -2.972656 -0.796875 -3.546875 L 1.375 -6.828125 C 1.625 -7.210938 1.929688 -7.507812 2.296875 -7.71875 C 2.660156 -7.9375 3.097656 -8.046875 3.609375 -8.046875 C 4.078125 -8.046875 4.5 -7.910156 4.875 -7.640625 C 5.257812 -7.378906 5.6875 -7.09375 6.15625 -6.78125 C 6.625 -6.46875 7.179688 -6.175781 7.828125 -5.90625 C 8.484375 -5.644531 9.332031 -5.515625 10.375 -5.515625 C 11.15625 -5.515625 11.847656 -5.613281 12.453125 -5.8125 C 13.066406 -6.019531 13.578125 -6.300781 13.984375 -6.65625 C 14.398438 -7.007812 14.707031 -7.414062 14.90625 -7.875 C 15.113281 -8.34375 15.21875 -8.832031 15.21875 -9.34375 C 15.21875 -10.28125 14.910156 -11.003906 14.296875 -11.515625 C 13.679688 -12.023438 12.910156 -12.472656 11.984375 -12.859375 C 11.054688 -13.242188 10.050781 -13.613281 8.96875 -13.96875 C 7.882812 -14.332031 6.878906 -14.820312 5.953125 -15.4375 C 5.023438 -16.0625 4.253906 -16.863281 3.640625 -17.84375 C 3.023438 -18.820312 2.71875 -20.128906 2.71875 -21.765625 C 2.71875 -23.253906 3 -24.695312 3.5625 -26.09375 C 4.125 -27.488281 4.945312 -28.726562 6.03125 -29.8125 C 7.113281 -30.894531 8.457031 -31.765625 10.0625 -32.421875 C 11.675781 -33.078125 13.535156 -33.40625 15.640625 -33.40625 C 17.785156 -33.40625 19.691406 -33.039062 21.359375 -32.3125 C 23.035156 -31.582031 24.425781 -30.648438 25.53125 -29.515625 Z M 23.265625 -26.390625 "/></g></g><g style="fill:#000000;fill-opacity:1;"><g transform="translate(289.549979, 169.124233)"><path style="stroke:none" d="M 3.890625 -6.890625 C 3.890625 -7.035156 3.890625 -7.207031 3.890625 -7.40625 C 3.890625 -7.613281 3.90625 -7.914062 3.9375 -8.3125 C 3.96875 -8.707031 4.019531 -9.226562 4.09375 -9.875 C 4.175781 -10.519531 4.28125 -11.367188 4.40625 -12.421875 L 6.15625 -26.578125 L 3.28125 -26.578125 C 2.863281 -26.578125 2.519531 -26.726562 2.25 -27.03125 C 1.976562 -27.332031 1.890625 -27.78125 1.984375 -28.375 L 2.390625 -31.8125 L 7.375 -32.78125 L 10.078125 -41.296875 C 10.378906 -42.253906 11.03125 -42.734375 12.03125 -42.734375 L 16.75 -42.734375 L 15.515625 -32.71875 L 23.203125 -32.71875 L 22.46875 -26.578125 L 14.78125 -26.578125 L 13.078125 -12.890625 C 12.972656 -12.015625 12.890625 -11.320312 12.828125 -10.8125 C 12.765625 -10.300781 12.71875 -9.90625 12.6875 -9.625 C 12.65625 -9.351562 12.640625 -9.171875 12.640625 -9.078125 C 12.640625 -8.984375 12.640625 -8.914062 12.640625 -8.875 C 12.640625 -8.125 12.804688 -7.53125 13.140625 -7.09375 C 13.484375 -6.664062 14 -6.453125 14.6875 -6.453125 C 15.0625 -6.453125 15.382812 -6.5 15.65625 -6.59375 C 15.9375 -6.6875 16.175781 -6.789062 16.375 -6.90625 C 16.582031 -7.019531 16.769531 -7.125 16.9375 -7.21875 C 17.113281 -7.320312 17.296875 -7.375 17.484375 -7.375 C 17.765625 -7.375 17.96875 -7.3125 18.09375 -7.1875 C 18.21875 -7.070312 18.347656 -6.878906 18.484375 -6.609375 L 20.390625 -2.390625 C 19.160156 -1.429688 17.8125 -0.707031 16.34375 -0.21875 C 14.875 0.269531 13.394531 0.515625 11.90625 0.515625 C 9.476562 0.515625 7.554688 -0.140625 6.140625 -1.453125 C 4.722656 -2.765625 3.972656 -4.578125 3.890625 -6.890625 Z M 3.890625 -6.890625 "/></g></g><g clip-rule="nonzero" clip-path="url(#a3a40fd989)"><g clip-rule="nonzero" clip-path="url(#ff0cf1ede3)"><g clip-rule="nonzero" clip-path="url(#664fd70689)"><path style=" stroke:none;fill-rule:nonzero;fill:#2d473b;fill-opacity:1;" d="M 143.160156 36.902344 L 170.378906 13 L 178.707031 13 C 179.226562 13 179.738281 13.050781 180.25 13.152344 C 180.757812 13.253906 181.253906 13.402344 181.734375 13.601562 C 182.214844 13.800781 182.671875 14.042969 183.101562 14.332031 C 183.535156 14.621094 183.933594 14.949219 184.300781 15.316406 C 184.667969 15.683594 184.996094 16.082031 185.285156 16.515625 C 185.574219 16.949219 185.816406 17.402344 186.015625 17.882812 C 186.214844 18.363281 186.363281 18.859375 186.464844 19.367188 C 186.566406 19.878906 186.617188 20.394531 186.617188 20.914062 L 186.714844 36.96875 Z M 143.160156 36.902344 "/></g></g></g><g clip-rule="nonzero" clip-path="url(#43a93e0578)"><g clip-rule="nonzero" clip-path="url(#35b7e018da)"><g clip-rule="nonzero" clip-path="url(#77295722c4)"><path style=" stroke:none;fill-rule:nonzero;fill:#ffa821;fill-opacity:1;" d="M 272.300781 14.742188 L 216.15625 27.761719 L 87.234375 27.710938 C 74.828125 27.710938 64.757812 45.609375 64.757812 67.667969 C 64.757812 89.726562 74.84375 107.605469 87.25 107.605469 L 215.675781 107.691406 L 272.300781 120.726562 C 271.488281 73.308594 272.300781 57.800781 272.300781 14.742188 Z M 272.300781 14.742188 "/></g></g></g><g clip-rule="nonzero" clip-path="url(#245d7aeb86)"><g clip-rule="nonzero" clip-path="url(#bd6c26da87)"><g clip-rule="nonzero" clip-path="url(#8497ade144)"><path style=" stroke:none;fill-rule:nonzero;fill:#ffeb5b;fill-opacity:1;" d="M 280.128906 122.386719 C 277.375 122.382812 274.761719 121.78125 272.28125 120.578125 C 269.425781 119.199219 266.917969 117.355469 264.753906 115.039062 C 255.546875 105.601562 249.363281 87.902344 249.363281 67.667969 C 249.363281 47.433594 255.546875 29.734375 264.753906 20.296875 C 266.917969 17.988281 269.421875 16.136719 272.265625 14.742188 C 274.75 13.546875 277.371094 12.9375 280.128906 12.917969 C 297.144531 12.917969 310.910156 37.398438 310.910156 67.652344 C 310.910156 97.90625 297.179688 122.386719 280.128906 122.386719 Z M 280.128906 122.386719 "/></g></g></g><g clip-rule="nonzero" clip-path="url(#be953b3c13)"><g clip-rule="nonzero" clip-path="url(#ad7ccd4621)"><g clip-rule="nonzero" clip-path="url(#b6d9bd5906)"><path style=" stroke:none;fill-rule:nonzero;fill:#fad02c;fill-opacity:1;" d="M 264.785156 115.039062 L 264.984375 115.238281 C 274.339844 105.882812 280.609375 88.070312 280.527344 67.75 C 280.445312 47.433594 274.308594 29.488281 265 20.082031 L 264.785156 20.296875 C 255.582031 29.734375 249.394531 47.398438 249.394531 67.667969 C 249.394531 87.9375 255.582031 105.601562 264.785156 115.039062 Z M 264.785156 115.039062 "/></g></g></g><g clip-rule="nonzero" clip-path="url(#c0b4385349)"><g clip-rule="nonzero" clip-path="url(#913cf3c4a3)"><g clip-rule="nonzero" clip-path="url(#adb5e93b79)"><path style=" stroke:none;fill-rule:nonzero;fill:#000000;fill-opacity:1;" d="M 280.179688 124.722656 C 298.753906 124.722656 313.300781 99.664062 313.300781 67.652344 C 313.300781 35.640625 298.753906 10.578125 280.179688 10.578125 C 277.179688 10.601562 274.320312 11.25 271.601562 12.519531 L 215.839844 25.355469 L 188.890625 25.375 L 188.90625 20.847656 C 188.90625 20.171875 188.839844 19.503906 188.707031 18.84375 C 188.574219 18.183594 188.378906 17.539062 188.121094 16.917969 C 187.863281 16.296875 187.546875 15.703125 187.171875 15.144531 C 186.796875 14.582031 186.371094 14.066406 185.894531 13.589844 C 185.417969 13.113281 184.902344 12.6875 184.339844 12.3125 C 183.78125 11.9375 183.1875 11.621094 182.566406 11.363281 C 181.945312 11.105469 181.300781 10.910156 180.640625 10.777344 C 179.980469 10.644531 179.3125 10.578125 178.640625 10.578125 L 170.296875 10.597656 C 169.710938 10.597656 169.195312 10.789062 168.753906 11.175781 L 152.898438 25.175781 C 152.824219 25.234375 152.757812 25.300781 152.699219 25.375 L 87.234375 25.355469 C 73.316406 25.375 62.386719 43.96875 62.421875 67.652344 C 62.316406 72.765625 62.847656 77.808594 64.011719 82.789062 C 65.179688 87.765625 66.941406 92.523438 69.304688 97.058594 C 70.738281 99.675781 72.496094 102.054688 74.578125 104.191406 C 75.386719 105.070312 76.273438 105.863281 77.238281 106.5625 C 78.203125 107.265625 79.230469 107.863281 80.320312 108.359375 C 81.40625 108.851562 82.53125 109.234375 83.695312 109.5 C 84.859375 109.769531 86.039062 109.917969 87.234375 109.945312 L 215.527344 109.960938 L 271.535156 122.851562 C 274.277344 124.109375 277.160156 124.734375 280.179688 124.722656 Z M 217.101562 105.5 C 216.789062 105.347656 216.457031 105.273438 216.105469 105.269531 C 210.996094 105.269531 206.070312 101.535156 202.273438 94.753906 C 200.109375 90.574219 198.496094 86.191406 197.433594 81.605469 C 196.367188 77.019531 195.886719 72.375 195.988281 67.667969 C 195.882812 62.960938 196.359375 58.3125 197.421875 53.722656 C 198.484375 49.136719 200.09375 44.75 202.257812 40.566406 C 206.070312 33.800781 210.996094 30.066406 216.105469 30.035156 C 216.257812 30.027344 216.40625 30.011719 216.554688 29.984375 L 262.347656 19.386719 C 252.828125 29.769531 246.988281 48.015625 247.007812 67.601562 C 247.023438 87.191406 252.894531 105.535156 262.363281 115.832031 Z M 280.179688 15.289062 C 295.820312 15.339844 308.605469 38.777344 308.605469 67.667969 C 308.605469 96.5625 295.953125 120.128906 280.179688 120.046875 C 278.867188 119.988281 277.578125 119.796875 276.308594 119.472656 C 275.039062 119.152344 273.816406 118.703125 272.636719 118.132812 C 271.457031 117.5625 270.347656 116.875 269.308594 116.078125 C 268.269531 115.28125 267.320312 114.386719 266.460938 113.394531 C 257.371094 104.074219 251.734375 86.558594 251.734375 67.652344 C 251.734375 48.742188 257.390625 31.246094 266.476562 21.925781 C 267.332031 20.933594 268.28125 20.039062 269.320312 19.242188 C 270.355469 18.445312 271.464844 17.761719 272.644531 17.191406 C 273.820312 16.621094 275.042969 16.175781 276.3125 15.855469 C 277.582031 15.535156 278.871094 15.347656 280.179688 15.289062 Z M 171.191406 15.273438 L 178.640625 15.289062 C 179 15.296875 179.359375 15.339844 179.714844 15.414062 C 180.070312 15.492188 180.414062 15.601562 180.746094 15.742188 C 181.082031 15.886719 181.398438 16.058594 181.699219 16.261719 C 182 16.464844 182.277344 16.695312 182.535156 16.949219 C 182.789062 17.207031 183.019531 17.484375 183.222656 17.785156 C 183.425781 18.085938 183.597656 18.402344 183.742188 18.738281 C 183.882812 19.070312 183.992188 19.414062 184.070312 19.769531 C 184.144531 20.125 184.1875 20.484375 184.195312 20.847656 L 184.195312 25.355469 L 159.832031 25.308594 Z M 87.21875 105.285156 C 82.109375 105.285156 77.183594 101.554688 73.382812 94.769531 C 71.222656 90.585938 69.609375 86.199219 68.550781 81.613281 C 67.488281 77.023438 67.007812 72.375 67.113281 67.667969 C 67.097656 47.285156 76.320312 30.066406 87.199219 30.035156 L 186.484375 30.066406 L 204.546875 30.085938 C 201.914062 32.449219 199.75 35.183594 198.0625 38.292969 C 195.703125 42.824219 193.941406 47.574219 192.773438 52.550781 C 191.609375 57.523438 191.078125 62.5625 191.179688 67.667969 C 191.074219 72.78125 191.605469 77.824219 192.769531 82.804688 C 193.933594 87.78125 195.699219 92.539062 198.0625 97.074219 C 199.5 99.699219 201.261719 102.082031 203.351562 104.222656 L 204.464844 105.335938 Z M 276.546875 52.160156 C 276.492188 51.851562 276.5 51.546875 276.566406 51.242188 C 276.636719 50.933594 276.761719 50.65625 276.941406 50.398438 C 277.121094 50.144531 277.34375 49.933594 277.609375 49.765625 C 277.875 49.601562 278.160156 49.492188 278.46875 49.441406 C 278.773438 49.386719 279.078125 49.398438 279.382812 49.464844 C 279.683594 49.535156 279.960938 49.65625 280.214844 49.835938 C 280.46875 50.015625 280.679688 50.234375 280.84375 50.496094 C 281.011719 50.757812 281.121094 51.042969 281.171875 51.347656 C 281.261719 51.855469 281.195312 52.335938 280.96875 52.796875 C 280.738281 53.257812 280.398438 53.605469 279.941406 53.84375 C 279.484375 54.078125 279.003906 54.15625 278.496094 54.074219 C 277.988281 53.992188 277.554688 53.769531 277.191406 53.402344 C 276.847656 53.058594 276.632812 52.640625 276.546875 52.160156 Z M 277.625 61.234375 C 277.609375 61.050781 277.617188 60.871094 277.644531 60.691406 C 277.671875 60.507812 277.722656 60.335938 277.789062 60.164062 C 277.859375 59.996094 277.945312 59.835938 278.050781 59.6875 C 278.15625 59.539062 278.28125 59.40625 278.417969 59.285156 C 278.554688 59.164062 278.703125 59.0625 278.863281 58.976562 C 279.027344 58.890625 279.195312 58.828125 279.371094 58.78125 C 279.546875 58.734375 279.726562 58.710938 279.910156 58.707031 C 280.09375 58.699219 280.273438 58.71875 280.449219 58.757812 C 280.628906 58.792969 280.800781 58.851562 280.964844 58.929688 C 281.132812 59.007812 281.285156 59.105469 281.425781 59.21875 C 281.570312 59.332031 281.695312 59.460938 281.808594 59.605469 C 281.921875 59.75 282.015625 59.902344 282.09375 60.070312 C 282.167969 60.234375 282.226562 60.40625 282.261719 60.585938 C 282.296875 60.765625 282.3125 60.945312 282.308594 61.128906 C 282.300781 61.308594 282.273438 61.488281 282.226562 61.664062 C 282.179688 61.839844 282.109375 62.007812 282.023438 62.167969 C 281.9375 62.332031 281.832031 62.476562 281.710938 62.613281 C 281.589844 62.75 281.453125 62.871094 281.304688 62.976562 C 281.152344 63.078125 280.992188 63.164062 280.824219 63.230469 C 280.65625 63.296875 280.480469 63.34375 280.300781 63.371094 C 280.117188 63.398438 279.9375 63.402344 279.753906 63.386719 C 279.574219 63.371094 279.394531 63.332031 279.222656 63.277344 C 279.050781 63.21875 278.886719 63.140625 278.730469 63.046875 C 278.574219 62.949219 278.433594 62.839844 278.304688 62.710938 C 277.894531 62.300781 277.667969 61.808594 277.625 61.234375 Z M 276.113281 40.351562 C 276.414062 40.265625 276.71875 40.238281 277.027344 40.273438 C 277.335938 40.308594 277.628906 40.402344 277.898438 40.554688 C 278.171875 40.703125 278.40625 40.902344 278.597656 41.144531 C 278.792969 41.390625 278.929688 41.660156 279.015625 41.960938 C 279.113281 42.21875 279.167969 42.484375 279.171875 42.757812 C 279.175781 43.035156 279.132812 43.304688 279.042969 43.5625 C 278.949219 43.824219 278.820312 44.0625 278.644531 44.273438 C 278.472656 44.488281 278.265625 44.667969 278.03125 44.808594 C 277.792969 44.949219 277.539062 45.046875 277.269531 45.097656 C 277 45.152344 276.726562 45.15625 276.453125 45.109375 C 276.183594 45.066406 275.925781 44.980469 275.683594 44.84375 C 275.445312 44.710938 275.234375 44.539062 275.054688 44.332031 C 274.910156 44.1875 274.785156 44.027344 274.683594 43.851562 C 274.578125 43.675781 274.5 43.488281 274.445312 43.292969 C 274.390625 43.097656 274.363281 42.898438 274.363281 42.691406 C 274.359375 42.488281 274.382812 42.289062 274.433594 42.089844 C 274.484375 41.894531 274.558594 41.707031 274.65625 41.527344 C 274.757812 41.347656 274.878906 41.1875 275.019531 41.039062 C 275.160156 40.894531 275.320312 40.765625 275.492188 40.660156 C 275.667969 40.554688 275.851562 40.476562 276.046875 40.417969 Z M 272.199219 104.503906 C 272.5 104.640625 272.761719 104.832031 272.980469 105.078125 C 273.199219 105.324219 273.359375 105.601562 273.460938 105.917969 C 273.566406 106.230469 273.597656 106.550781 273.566406 106.878906 C 273.53125 107.207031 273.433594 107.511719 273.273438 107.800781 C 273.109375 108.085938 272.894531 108.328125 272.632812 108.523438 C 272.367188 108.722656 272.074219 108.855469 271.753906 108.929688 C 271.433594 109.003906 271.109375 109.007812 270.785156 108.945312 C 270.460938 108.882812 270.164062 108.757812 269.894531 108.570312 C 269.722656 108.445312 269.570312 108.296875 269.445312 108.121094 C 269.199219 107.929688 268.996094 107.699219 268.839844 107.425781 C 268.683594 107.15625 268.585938 106.863281 268.542969 106.550781 C 268.503906 106.242188 268.523438 105.933594 268.605469 105.632812 C 268.6875 105.328125 268.824219 105.054688 269.015625 104.804688 C 269.207031 104.554688 269.4375 104.351562 269.710938 104.195312 C 269.984375 104.039062 270.273438 103.941406 270.585938 103.902344 C 270.894531 103.859375 271.203125 103.882812 271.507812 103.964844 C 271.808594 104.046875 272.085938 104.179688 272.332031 104.371094 Z M 272.613281 31.644531 C 272.902344 31.515625 273.199219 31.449219 273.511719 31.441406 C 273.824219 31.4375 274.125 31.488281 274.417969 31.601562 C 274.707031 31.714844 274.96875 31.882812 275.191406 32.097656 C 275.417969 32.316406 275.59375 32.566406 275.714844 32.855469 C 275.824219 33.105469 275.886719 33.363281 275.90625 33.636719 C 275.921875 33.90625 275.894531 34.175781 275.820312 34.4375 C 275.742188 34.699219 275.625 34.9375 275.464844 35.160156 C 275.308594 35.378906 275.117188 35.566406 274.890625 35.722656 C 274.667969 35.875 274.421875 35.988281 274.160156 36.054688 C 273.894531 36.125 273.628906 36.148438 273.355469 36.125 C 273.085938 36.101562 272.828125 36.03125 272.578125 35.917969 C 272.332031 35.800781 272.113281 35.648438 271.917969 35.457031 C 271.742188 35.269531 271.601562 35.050781 271.503906 34.8125 C 271.363281 34.527344 271.285156 34.230469 271.265625 33.914062 C 271.246094 33.597656 271.289062 33.292969 271.390625 32.992188 C 271.496094 32.695312 271.65625 32.429688 271.867188 32.195312 C 272.078125 31.960938 272.328125 31.777344 272.613281 31.644531 Z M 277.839844 70.339844 C 277.839844 70.027344 277.898438 69.726562 278.015625 69.4375 C 278.132812 69.152344 278.304688 68.898438 278.523438 68.675781 C 278.742188 68.457031 278.996094 68.285156 279.285156 68.164062 C 279.570312 68.046875 279.871094 67.984375 280.183594 67.984375 C 280.496094 67.984375 280.792969 68.046875 281.082031 68.164062 C 281.371094 68.28125 281.625 68.453125 281.84375 68.671875 C 282.0625 68.894531 282.234375 69.148438 282.351562 69.433594 C 282.472656 69.722656 282.53125 70.023438 282.53125 70.332031 C 282.53125 70.644531 282.46875 70.945312 282.351562 71.234375 C 282.230469 71.519531 282.0625 71.773438 281.839844 71.992188 C 281.621094 72.214844 281.367188 72.382812 281.078125 72.5 C 280.789062 72.621094 280.488281 72.679688 280.179688 72.675781 C 279.558594 72.664062 279.027344 72.445312 278.585938 72.015625 C 278.101562 71.5625 277.851562 71.003906 277.839844 70.339844 Z M 275.5 88.433594 C 275.574219 88.132812 275.703125 87.859375 275.886719 87.609375 C 276.066406 87.359375 276.292969 87.152344 276.554688 86.992188 C 276.820312 86.828125 277.105469 86.722656 277.410156 86.675781 C 277.714844 86.625 278.019531 86.636719 278.320312 86.707031 C 278.625 86.78125 278.902344 86.90625 279.15625 87.089844 C 279.410156 87.273438 279.617188 87.5 279.78125 87.765625 C 279.945312 88.03125 280.050781 88.316406 280.097656 88.625 C 280.148438 88.933594 280.136719 89.242188 280.0625 89.546875 C 279.988281 89.847656 279.859375 90.121094 279.679688 90.371094 C 279.496094 90.621094 279.273438 90.828125 279.007812 90.988281 C 278.742188 91.148438 278.457031 91.253906 278.152344 91.304688 C 277.847656 91.351562 277.542969 91.339844 277.242188 91.269531 C 276.816406 91.167969 276.445312 90.964844 276.132812 90.65625 C 275.839844 90.375 275.632812 90.039062 275.515625 89.648438 C 275.394531 89.257812 275.378906 88.863281 275.46875 88.46875 Z M 275.867188 95.765625 C 276.03125 95.824219 276.183594 95.90625 276.332031 96 C 276.476562 96.097656 276.609375 96.207031 276.730469 96.332031 C 276.855469 96.460938 276.960938 96.597656 277.050781 96.746094 C 277.140625 96.894531 277.214844 97.054688 277.269531 97.21875 C 277.324219 97.386719 277.359375 97.554688 277.378906 97.730469 C 277.394531 97.902344 277.394531 98.078125 277.371094 98.25 C 277.351562 98.425781 277.308594 98.59375 277.25 98.757812 C 277.191406 98.921875 277.113281 99.078125 277.019531 99.226562 C 276.925781 99.371094 276.816406 99.507812 276.691406 99.628906 C 276.566406 99.753906 276.429688 99.859375 276.28125 99.953125 C 276.132812 100.046875 275.976562 100.121094 275.8125 100.179688 C 275.648438 100.234375 275.476562 100.273438 275.304688 100.292969 C 275.128906 100.3125 274.957031 100.3125 274.78125 100.292969 C 274.609375 100.273438 274.4375 100.234375 274.273438 100.175781 C 274.109375 100.121094 273.953125 100.046875 273.804688 99.953125 C 273.65625 99.859375 273.519531 99.753906 273.394531 99.628906 C 273.203125 99.441406 273.050781 99.226562 272.933594 98.984375 C 272.816406 98.742188 272.742188 98.488281 272.710938 98.222656 C 272.683594 97.953125 272.699219 97.691406 272.757812 97.429688 C 272.820312 97.167969 272.921875 96.925781 273.066406 96.699219 C 273.210938 96.472656 273.390625 96.277344 273.601562 96.113281 C 273.8125 95.945312 274.046875 95.820312 274.300781 95.738281 C 274.554688 95.652344 274.816406 95.613281 275.085938 95.617188 C 275.355469 95.621094 275.613281 95.671875 275.867188 95.765625 Z M 277.078125 79.527344 C 277.097656 79.351562 277.140625 79.183594 277.203125 79.019531 C 277.261719 78.855469 277.339844 78.699219 277.4375 78.550781 C 277.53125 78.402344 277.644531 78.269531 277.769531 78.144531 C 277.894531 78.023438 278.035156 77.917969 278.183594 77.824219 C 278.335938 77.734375 278.492188 77.660156 278.660156 77.605469 C 278.824219 77.550781 278.996094 77.511719 279.171875 77.496094 C 279.347656 77.476562 279.519531 77.480469 279.695312 77.503906 C 279.871094 77.523438 280.039062 77.566406 280.203125 77.625 C 280.371094 77.683594 280.527344 77.761719 280.671875 77.859375 C 280.820312 77.953125 280.957031 78.0625 281.078125 78.191406 C 281.203125 78.316406 281.308594 78.453125 281.402344 78.601562 C 281.492188 78.753906 281.566406 78.910156 281.625 79.078125 C 281.679688 79.242188 281.71875 79.414062 281.734375 79.589844 C 281.753906 79.761719 281.753906 79.9375 281.730469 80.113281 C 281.710938 80.285156 281.667969 80.457031 281.609375 80.621094 C 281.550781 80.789062 281.472656 80.945312 281.378906 81.09375 C 281.285156 81.242188 281.175781 81.375 281.050781 81.5 C 280.925781 81.621094 280.789062 81.730469 280.636719 81.824219 C 280.488281 81.914062 280.332031 81.992188 280.164062 82.046875 C 280 82.105469 279.828125 82.144531 279.652344 82.160156 C 279.480469 82.179688 279.304688 82.179688 279.128906 82.160156 C 278.957031 82.140625 278.785156 82.097656 278.621094 82.039062 C 278.453125 81.980469 278.296875 81.90625 278.148438 81.8125 C 278 81.71875 277.863281 81.609375 277.738281 81.484375 C 277.199219 80.941406 276.976562 80.289062 277.078125 79.527344 Z M 156.796875 90.339844 C 156.792969 90.652344 156.734375 90.949219 156.613281 91.234375 C 156.496094 91.519531 156.328125 91.773438 156.109375 91.992188 C 155.890625 92.210938 155.636719 92.382812 155.351562 92.5 C 155.0625 92.617188 154.765625 92.679688 154.457031 92.679688 C 154.148438 92.679688 153.847656 92.617188 153.5625 92.5 C 153.277344 92.382812 153.023438 92.210938 152.804688 91.992188 C 152.585938 91.773438 152.417969 91.519531 152.296875 91.234375 C 152.179688 90.949219 152.117188 90.652344 152.117188 90.339844 C 152.140625 90.046875 152.214844 89.765625 152.34375 89.5 C 152.472656 89.234375 152.644531 89 152.863281 88.800781 C 153.078125 88.601562 153.324219 88.445312 153.601562 88.339844 C 153.875 88.230469 154.160156 88.175781 154.457031 88.175781 C 154.75 88.175781 155.035156 88.230469 155.3125 88.339844 C 155.585938 88.445312 155.832031 88.601562 156.050781 88.800781 C 156.265625 89 156.4375 89.234375 156.566406 89.5 C 156.695312 89.765625 156.773438 90.046875 156.796875 90.339844 Z M 91.164062 90.324219 C 91.164062 90.632812 91.101562 90.933594 90.984375 91.21875 C 90.867188 91.503906 90.695312 91.757812 90.476562 91.976562 C 90.257812 92.195312 90.003906 92.363281 89.71875 92.484375 C 89.433594 92.601562 89.136719 92.664062 88.824219 92.664062 C 88.515625 92.664062 88.21875 92.601562 87.933594 92.484375 C 87.644531 92.363281 87.394531 92.195312 87.175781 91.976562 C 86.953125 91.757812 86.785156 91.503906 86.667969 91.21875 C 86.546875 90.933594 86.488281 90.632812 86.488281 90.324219 C 86.488281 90.015625 86.546875 89.71875 86.667969 89.429688 C 86.785156 89.144531 86.953125 88.890625 87.175781 88.671875 C 87.394531 88.453125 87.644531 88.285156 87.933594 88.164062 C 88.21875 88.046875 88.515625 87.988281 88.824219 87.984375 C 89.136719 87.988281 89.433594 88.046875 89.71875 88.164062 C 90.003906 88.285156 90.257812 88.453125 90.476562 88.671875 C 90.695312 88.890625 90.867188 89.144531 90.984375 89.429688 C 91.101562 89.71875 91.164062 90.015625 91.164062 90.324219 Z M 138.085938 90.308594 C 138.089844 90.78125 137.957031 91.21875 137.695312 91.613281 C 137.433594 92.007812 137.085938 92.296875 136.648438 92.480469 C 136.210938 92.664062 135.757812 92.710938 135.292969 92.621094 C 134.828125 92.53125 134.425781 92.316406 134.089844 91.984375 C 133.628906 91.527344 133.394531 90.972656 133.390625 90.324219 C 133.390625 90.011719 133.449219 89.710938 133.570312 89.421875 C 133.6875 89.132812 133.859375 88.878906 134.078125 88.65625 C 134.300781 88.433594 134.554688 88.265625 134.84375 88.144531 C 135.132812 88.027344 135.433594 87.96875 135.746094 87.96875 C 136.058594 87.96875 136.355469 88.03125 136.640625 88.148438 C 136.925781 88.269531 137.179688 88.4375 137.398438 88.65625 C 137.617188 88.875 137.789062 89.128906 137.90625 89.414062 C 138.023438 89.699219 138.085938 90 138.085938 90.308594 Z M 128.683594 90.359375 C 128.683594 90.671875 128.625 90.972656 128.503906 91.261719 C 128.386719 91.550781 128.214844 91.804688 127.996094 92.027344 C 127.773438 92.246094 127.519531 92.417969 127.230469 92.535156 C 126.941406 92.65625 126.640625 92.714844 126.328125 92.714844 C 126.015625 92.714844 125.714844 92.65625 125.421875 92.535156 C 125.132812 92.417969 124.878906 92.246094 124.660156 92.027344 C 124.4375 91.804688 124.265625 91.550781 124.148438 91.261719 C 124.027344 90.972656 123.96875 90.671875 123.972656 90.359375 C 123.972656 90.046875 124.03125 89.746094 124.148438 89.457031 C 124.269531 89.167969 124.4375 88.910156 124.660156 88.691406 C 124.878906 88.46875 125.136719 88.296875 125.425781 88.179688 C 125.714844 88.058594 126.015625 88 126.328125 88 C 126.640625 88 126.941406 88.058594 127.230469 88.179688 C 127.519531 88.296875 127.773438 88.46875 127.992188 88.691406 C 128.214844 88.910156 128.382812 89.167969 128.503906 89.457031 C 128.621094 89.746094 128.683594 90.046875 128.683594 90.359375 Z M 166.234375 90.324219 C 166.234375 90.800781 166.101562 91.238281 165.839844 91.632812 C 165.574219 92.03125 165.222656 92.320312 164.78125 92.503906 C 164.34375 92.683594 163.886719 92.726562 163.421875 92.632812 C 162.953125 92.539062 162.554688 92.320312 162.21875 91.984375 C 161.769531 91.519531 161.546875 90.96875 161.554688 90.324219 C 161.578125 90.03125 161.652344 89.75 161.78125 89.484375 C 161.910156 89.21875 162.082031 88.984375 162.300781 88.785156 C 162.515625 88.582031 162.761719 88.429688 163.039062 88.320312 C 163.3125 88.214844 163.597656 88.160156 163.894531 88.160156 C 164.1875 88.160156 164.472656 88.214844 164.75 88.320312 C 165.023438 88.429688 165.269531 88.582031 165.488281 88.785156 C 165.703125 88.984375 165.875 89.21875 166.003906 89.484375 C 166.132812 89.75 166.210938 90.03125 166.234375 90.324219 Z M 147.472656 90.308594 C 147.476562 90.621094 147.417969 90.921875 147.296875 91.210938 C 147.179688 91.5 147.007812 91.753906 146.785156 91.976562 C 146.566406 92.199219 146.308594 92.367188 146.019531 92.488281 C 145.730469 92.605469 145.429688 92.664062 145.117188 92.664062 C 144.808594 92.664062 144.511719 92.601562 144.226562 92.484375 C 143.9375 92.363281 143.6875 92.195312 143.46875 91.976562 C 143.246094 91.757812 143.078125 91.503906 142.960938 91.21875 C 142.839844 90.933594 142.78125 90.632812 142.78125 90.324219 C 142.777344 90.015625 142.839844 89.714844 142.957031 89.425781 C 143.074219 89.140625 143.242188 88.886719 143.460938 88.664062 C 143.683594 88.445312 143.933594 88.273438 144.222656 88.152344 C 144.507812 88.035156 144.808594 87.972656 145.117188 87.972656 C 145.429688 87.972656 145.730469 88.03125 146.015625 88.148438 C 146.304688 88.265625 146.558594 88.433594 146.78125 88.652344 C 147 88.871094 147.171875 89.125 147.292969 89.410156 C 147.410156 89.699219 147.472656 89.996094 147.472656 90.308594 Z M 100.550781 90.324219 C 100.550781 90.632812 100.492188 90.933594 100.371094 91.21875 C 100.253906 91.503906 100.085938 91.757812 99.863281 91.976562 C 99.644531 92.195312 99.394531 92.363281 99.105469 92.484375 C 98.820312 92.601562 98.523438 92.664062 98.214844 92.664062 C 97.902344 92.664062 97.605469 92.601562 97.320312 92.484375 C 97.035156 92.363281 96.78125 92.195312 96.5625 91.976562 C 96.34375 91.757812 96.171875 91.503906 96.054688 91.21875 C 95.9375 90.933594 95.875 90.632812 95.875 90.324219 C 95.847656 90 95.890625 89.683594 95.996094 89.375 C 96.105469 89.0625 96.269531 88.789062 96.492188 88.550781 C 96.714844 88.3125 96.976562 88.125 97.273438 87.996094 C 97.574219 87.863281 97.886719 87.796875 98.214844 87.796875 C 98.539062 87.796875 98.851562 87.863281 99.152344 87.996094 C 99.453125 88.125 99.710938 88.3125 99.933594 88.550781 C 100.15625 88.789062 100.320312 89.0625 100.429688 89.371094 C 100.535156 89.679688 100.578125 90 100.550781 90.324219 Z M 109.890625 90.273438 C 109.890625 90.75 109.761719 91.1875 109.496094 91.585938 C 109.234375 91.980469 108.878906 92.269531 108.441406 92.453125 C 108 92.632812 107.546875 92.679688 107.078125 92.582031 C 106.613281 92.488281 106.210938 92.273438 105.875 91.933594 C 105.742188 91.796875 105.625 91.644531 105.527344 91.480469 C 105.429688 91.316406 105.351562 91.140625 105.296875 90.957031 C 105.242188 90.769531 105.210938 90.582031 105.199219 90.390625 C 105.191406 90.199219 105.207031 90.007812 105.246094 89.820312 C 105.285156 89.628906 105.34375 89.449219 105.425781 89.277344 C 105.507812 89.101562 105.613281 88.941406 105.734375 88.792969 C 105.855469 88.644531 105.996094 88.511719 106.148438 88.398438 C 106.304688 88.285156 106.472656 88.191406 106.648438 88.117188 C 106.828125 88.042969 107.011719 87.992188 107.199219 87.964844 C 107.390625 87.9375 107.582031 87.929688 107.773438 87.949219 C 107.964844 87.96875 108.152344 88.011719 108.332031 88.074219 C 108.511719 88.140625 108.683594 88.226562 108.84375 88.332031 C 109.003906 88.4375 109.148438 88.5625 109.277344 88.707031 C 109.410156 88.847656 109.519531 89.003906 109.609375 89.171875 C 109.699219 89.34375 109.769531 89.519531 109.816406 89.707031 C 109.863281 89.894531 109.890625 90.082031 109.890625 90.273438 Z M 119.277344 90.273438 C 119.277344 90.585938 119.21875 90.886719 119.101562 91.175781 C 118.980469 91.46875 118.8125 91.722656 118.589844 91.941406 C 118.371094 92.164062 118.113281 92.335938 117.824219 92.453125 C 117.535156 92.574219 117.234375 92.632812 116.921875 92.628906 C 116.609375 92.632812 116.308594 92.574219 116.019531 92.453125 C 115.730469 92.335938 115.476562 92.164062 115.253906 91.941406 C 115.03125 91.722656 114.863281 91.46875 114.742188 91.175781 C 114.625 90.886719 114.566406 90.585938 114.566406 90.273438 C 114.566406 89.960938 114.625 89.664062 114.746094 89.375 C 114.867188 89.085938 115.035156 88.832031 115.257812 88.609375 C 115.476562 88.386719 115.734375 88.21875 116.019531 88.097656 C 116.308594 87.980469 116.609375 87.917969 116.921875 87.917969 C 117.234375 87.917969 117.535156 87.980469 117.824219 88.097656 C 118.113281 88.21875 118.367188 88.386719 118.585938 88.609375 C 118.808594 88.832031 118.980469 89.085938 119.097656 89.375 C 119.21875 89.664062 119.277344 89.960938 119.277344 90.273438 Z M 227.847656 93.128906 C 227.78125 93.429688 227.652344 93.710938 227.472656 93.964844 C 227.292969 94.21875 227.070312 94.425781 226.804688 94.59375 C 226.539062 94.757812 226.253906 94.863281 225.945312 94.914062 C 225.640625 94.964844 225.332031 94.957031 225.03125 94.886719 C 224.601562 94.785156 224.230469 94.582031 223.917969 94.273438 C 223.773438 94.128906 223.648438 93.96875 223.542969 93.792969 C 223.441406 93.617188 223.359375 93.429688 223.304688 93.234375 C 223.25 93.035156 223.222656 92.835938 223.21875 92.632812 C 223.214844 92.425781 223.238281 92.226562 223.289062 92.027344 C 223.339844 91.828125 223.414062 91.640625 223.511719 91.460938 C 223.613281 91.28125 223.734375 91.121094 223.875 90.972656 C 224.015625 90.824219 224.175781 90.699219 224.351562 90.59375 C 224.527344 90.488281 224.710938 90.40625 224.90625 90.347656 C 225.105469 90.292969 225.304688 90.261719 225.507812 90.253906 C 225.714844 90.25 225.914062 90.273438 226.113281 90.320312 C 226.3125 90.367188 226.503906 90.441406 226.683594 90.539062 C 226.863281 90.636719 227.027344 90.753906 227.175781 90.894531 C 227.324219 91.035156 227.453125 91.191406 227.558594 91.367188 C 227.667969 91.542969 227.75 91.726562 227.808594 91.921875 C 227.867188 92.117188 227.902344 92.316406 227.90625 92.523438 C 227.914062 92.726562 227.894531 92.929688 227.847656 93.128906 Z M 218.660156 90.972656 C 218.589844 91.273438 218.460938 91.546875 218.28125 91.796875 C 218.101562 92.046875 217.878906 92.253906 217.617188 92.417969 C 217.355469 92.582031 217.070312 92.6875 216.765625 92.738281 C 216.460938 92.789062 216.160156 92.78125 215.859375 92.714844 C 215.421875 92.609375 215.046875 92.402344 214.730469 92.082031 C 214.441406 91.796875 214.242188 91.460938 214.132812 91.070312 C 214.019531 90.679688 214.007812 90.289062 214.097656 89.894531 C 214.128906 89.550781 214.230469 89.226562 214.402344 88.929688 C 214.574219 88.628906 214.800781 88.378906 215.082031 88.179688 C 215.363281 87.984375 215.675781 87.851562 216.015625 87.789062 C 216.355469 87.726562 216.691406 87.742188 217.023438 87.828125 C 217.359375 87.914062 217.660156 88.066406 217.925781 88.285156 C 218.191406 88.503906 218.402344 88.769531 218.550781 89.082031 C 218.699219 89.390625 218.777344 89.71875 218.78125 90.0625 C 218.785156 90.410156 218.71875 90.738281 218.578125 91.054688 Z M 243.324219 99.050781 C 242.886719 98.945312 242.511719 98.738281 242.195312 98.417969 C 242.0625 98.285156 241.949219 98.140625 241.851562 97.980469 C 241.753906 97.816406 241.679688 97.648438 241.621094 97.46875 C 241.566406 97.292969 241.53125 97.109375 241.519531 96.921875 C 241.507812 96.734375 241.515625 96.546875 241.550781 96.363281 C 241.582031 96.179688 241.632812 96 241.710938 95.828125 C 241.785156 95.65625 241.878906 95.496094 241.992188 95.347656 C 242.105469 95.199219 242.234375 95.0625 242.378906 94.945312 C 242.523438 94.828125 242.683594 94.726562 242.851562 94.648438 C 243.019531 94.566406 243.195312 94.507812 243.378906 94.46875 C 243.5625 94.429688 243.75 94.414062 243.9375 94.421875 C 244.125 94.425781 244.308594 94.457031 244.488281 94.503906 C 244.667969 94.554688 244.839844 94.625 245.003906 94.71875 C 245.167969 94.808594 245.320312 94.917969 245.457031 95.046875 C 245.59375 95.171875 245.714844 95.316406 245.816406 95.472656 C 245.921875 95.628906 246.003906 95.792969 246.066406 95.972656 C 246.128906 96.148438 246.171875 96.328125 246.191406 96.515625 C 246.210938 96.699219 246.210938 96.886719 246.183594 97.074219 C 246.160156 97.257812 246.113281 97.4375 246.046875 97.613281 C 245.980469 97.789062 245.890625 97.953125 245.785156 98.105469 C 245.675781 98.261719 245.554688 98.398438 245.414062 98.523438 C 245.273438 98.648438 245.121094 98.753906 244.953125 98.839844 C 244.789062 98.929688 244.613281 98.996094 244.433594 99.039062 C 244.25 99.085938 244.066406 99.109375 243.878906 99.109375 C 243.691406 99.113281 243.507812 99.089844 243.324219 99.050781 Z M 237.003906 95.152344 C 236.933594 95.453125 236.808594 95.734375 236.628906 95.988281 C 236.449219 96.242188 236.222656 96.449219 235.960938 96.617188 C 235.695312 96.78125 235.410156 96.886719 235.101562 96.9375 C 234.792969 96.992188 234.488281 96.980469 234.183594 96.910156 C 233.882812 96.839844 233.601562 96.714844 233.347656 96.53125 C 233.09375 96.351562 232.886719 96.128906 232.722656 95.863281 C 232.554688 95.601562 232.449219 95.3125 232.398438 95.007812 C 232.347656 94.699219 232.355469 94.394531 232.425781 94.089844 C 232.496094 93.785156 232.625 93.507812 232.804688 93.253906 C 232.984375 93 233.207031 92.792969 233.472656 92.625 C 233.738281 92.460938 234.023438 92.355469 234.332031 92.300781 C 234.636719 92.25 234.941406 92.261719 235.246094 92.332031 C 235.550781 92.402344 235.828125 92.527344 236.082031 92.707031 C 236.335938 92.890625 236.542969 93.113281 236.710938 93.378906 C 236.875 93.640625 236.984375 93.925781 237.035156 94.234375 C 237.085938 94.542969 237.074219 94.847656 237.003906 95.152344 Z M 237.003906 95.152344 "/></g></g></g><g style="fill:#ffa821;fill-opacity:1;"><g transform="translate(209.574942, 169.124233)"><path style="stroke:none" d="M 1.5 -6.894531 L 1.5 -7.421875 C 1.5 -7.6875 1.519531 -8.050781 1.554688 -8.507812 C 1.589844 -8.925781 1.644531 -9.476562 1.722656 -10.148438 L 2.027344 -12.699219 L 3.785156 -26.878906 L 6.160156 -26.585938 L 6.160156 -24.191406 L 3.285156 -24.191406 C 2.746094 -24.191406 2.238281 -24.292969 1.761719 -24.496094 C 1.265625 -24.710938 0.832031 -25.023438 0.464844 -25.4375 C -0.296875 -26.289062 -0.582031 -27.378906 -0.390625 -28.710938 L 1.980469 -28.371094 L -0.398438 -28.65625 L 0.226562 -33.839844 L 6.921875 -35.125 L 7.371094 -32.773438 L 5.089844 -33.5 L 7.804688 -42.023438 C 8.105469 -42.992188 8.628906 -43.75 9.375 -44.300781 C 10.121094 -44.851562 11.007812 -45.125 12.03125 -45.125 L 19.464844 -45.125 L 17.886719 -32.417969 L 15.511719 -32.710938 L 15.511719 -35.105469 L 25.898438 -35.105469 L 24.589844 -24.191406 L 14.777344 -24.191406 L 14.777344 -26.585938 L 17.152344 -26.289062 L 15.460938 -12.601562 L 15.203125 -10.527344 L 15.0625 -9.347656 C 15.050781 -9.242188 15.039062 -9.15625 15.035156 -9.085938 L 15.03125 -9.078125 L 15.03125 -8.871094 C 15.03125 -8.726562 15.042969 -8.613281 15.066406 -8.535156 C 15.066406 -8.527344 15.070312 -8.523438 15.070312 -8.519531 C 15.070312 -8.519531 15.070312 -8.519531 15.066406 -8.523438 C 15.058594 -8.539062 15.050781 -8.554688 15.035156 -8.574219 C 14.953125 -8.679688 14.851562 -8.757812 14.726562 -8.8125 C 14.691406 -8.828125 14.660156 -8.835938 14.632812 -8.84375 C 14.640625 -8.839844 14.65625 -8.839844 14.679688 -8.839844 C 14.757812 -8.839844 14.820312 -8.84375 14.871094 -8.851562 C 14.882812 -8.851562 14.894531 -8.855469 14.902344 -8.855469 C 14.898438 -8.855469 14.894531 -8.855469 14.886719 -8.851562 C 15.019531 -8.898438 15.117188 -8.941406 15.1875 -8.980469 C 15.398438 -9.101562 15.59375 -9.214844 15.773438 -9.316406 C 16.308594 -9.617188 16.878906 -9.765625 17.488281 -9.765625 C 18.386719 -9.765625 19.128906 -9.496094 19.710938 -8.960938 C 20.078125 -8.628906 20.390625 -8.175781 20.652344 -7.609375 L 23.355469 -1.660156 L 21.859375 -0.503906 C 20.410156 0.621094 18.824219 1.472656 17.097656 2.046875 C 15.382812 2.617188 13.652344 2.902344 11.902344 2.902344 C 8.855469 2.902344 6.390625 2.039062 4.519531 0.304688 C 2.617188 -1.453125 1.609375 -3.824219 1.5 -6.804688 Z M 6.285156 -6.894531 L 3.894531 -6.894531 L 6.285156 -6.980469 C 6.347656 -5.324219 6.839844 -4.066406 7.769531 -3.210938 C 8.726562 -2.324219 10.101562 -1.882812 11.902344 -1.882812 C 13.132812 -1.882812 14.359375 -2.085938 15.582031 -2.496094 C 16.792969 -2.898438 17.90625 -3.496094 18.925781 -4.285156 L 20.394531 -2.394531 L 18.214844 -1.402344 L 16.304688 -5.601562 C 16.292969 -5.628906 16.285156 -5.648438 16.277344 -5.664062 L 16.277344 -5.660156 C 16.324219 -5.585938 16.390625 -5.511719 16.476562 -5.433594 C 16.6875 -5.238281 16.925781 -5.105469 17.183594 -5.027344 C 17.296875 -4.996094 17.402344 -4.976562 17.488281 -4.976562 C 17.714844 -4.976562 17.925781 -5.03125 18.121094 -5.140625 C 17.957031 -5.050781 17.78125 -4.949219 17.585938 -4.835938 C 17.253906 -4.644531 16.875 -4.472656 16.453125 -4.328125 C 15.921875 -4.144531 15.332031 -4.054688 14.679688 -4.054688 C 14.011719 -4.054688 13.402344 -4.171875 12.847656 -4.410156 C 12.214844 -4.679688 11.683594 -5.085938 11.261719 -5.628906 C 10.582031 -6.496094 10.246094 -7.578125 10.246094 -8.871094 L 10.246094 -9.078125 C 10.246094 -9.265625 10.265625 -9.550781 10.308594 -9.925781 L 10.453125 -11.109375 L 10.710938 -13.1875 L 12.660156 -28.976562 L 22.46875 -28.976562 L 22.46875 -26.585938 L 20.089844 -26.867188 L 20.824219 -32.996094 L 23.203125 -32.710938 L 23.203125 -30.316406 L 12.800781 -30.316406 L 14.378906 -43.027344 L 16.753906 -42.730469 L 16.753906 -40.339844 L 12.03125 -40.339844 C 12.011719 -40.339844 11.996094 -40.339844 11.984375 -40.335938 C 11.992188 -40.335938 12 -40.339844 12.015625 -40.34375 C 12.082031 -40.363281 12.148438 -40.398438 12.214844 -40.445312 C 12.28125 -40.496094 12.335938 -40.550781 12.371094 -40.605469 C 12.378906 -40.617188 12.382812 -40.625 12.386719 -40.632812 C 12.382812 -40.621094 12.375 -40.601562 12.367188 -40.570312 L 9.222656 -30.695312 L 2.84375 -29.46875 L 2.394531 -31.816406 L 4.769531 -31.53125 L 4.351562 -28.058594 L 4.347656 -28.03125 C 4.34375 -28 4.339844 -27.976562 4.339844 -27.964844 C 4.339844 -27.988281 4.335938 -28.023438 4.328125 -28.0625 C 4.289062 -28.265625 4.191406 -28.453125 4.035156 -28.625 C 3.933594 -28.738281 3.808594 -28.828125 3.65625 -28.894531 C 3.527344 -28.949219 3.402344 -28.976562 3.285156 -28.976562 L 8.867188 -28.976562 L 6.78125 -12.128906 L 6.480469 -9.605469 C 6.40625 -8.980469 6.355469 -8.488281 6.328125 -8.121094 C 6.300781 -7.789062 6.285156 -7.558594 6.285156 -7.421875 Z M 6.285156 -6.894531 "/></g></g><g style="fill:#ffa821;fill-opacity:1;"><g transform="translate(233.222424, 169.124233)"><path style="stroke:none" d="M 18.351562 -24.925781 C 17.773438 -24.925781 17.234375 -24.804688 16.726562 -24.566406 C 16.167969 -24.300781 15.660156 -23.921875 15.195312 -23.429688 C 14.679688 -22.882812 14.21875 -22.207031 13.8125 -21.410156 C 13.382812 -20.566406 13.027344 -19.613281 12.753906 -18.550781 L 10.4375 -19.148438 L 10.09375 -21.515625 C 12.359375 -21.84375 14.175781 -22.191406 15.539062 -22.558594 C 16.796875 -22.898438 17.738281 -23.246094 18.355469 -23.601562 C 18.597656 -23.738281 18.78125 -23.871094 18.914062 -23.992188 C 18.953125 -24.027344 18.984375 -24.058594 19.003906 -24.085938 L 19 -24.082031 C 19.097656 -24.273438 19.148438 -24.492188 19.148438 -24.734375 C 19.148438 -24.714844 19.148438 -24.703125 19.152344 -24.691406 C 19.148438 -24.699219 19.144531 -24.710938 19.136719 -24.726562 C 19.140625 -24.722656 19.140625 -24.722656 19.144531 -24.71875 C 19.140625 -24.726562 19.132812 -24.734375 19.121094 -24.746094 C 19.089844 -24.773438 19.019531 -24.808594 18.90625 -24.851562 C 18.785156 -24.902344 18.601562 -24.925781 18.351562 -24.925781 Z M 18.351562 -29.710938 C 19.207031 -29.710938 19.980469 -29.578125 20.664062 -29.304688 C 21.359375 -29.03125 21.949219 -28.664062 22.433594 -28.199219 C 22.929688 -27.722656 23.304688 -27.175781 23.5625 -26.558594 C 23.8125 -25.957031 23.933594 -25.347656 23.933594 -24.734375 C 23.933594 -23.738281 23.71875 -22.808594 23.285156 -21.9375 C 22.800781 -20.976562 21.953125 -20.144531 20.738281 -19.449219 C 19.761719 -18.890625 18.445312 -18.386719 16.789062 -17.9375 C 15.238281 -17.519531 13.234375 -17.132812 10.777344 -16.777344 L 7.21875 -16.265625 L 8.117188 -19.746094 C 8.480469 -21.152344 8.957031 -22.429688 9.546875 -23.585938 C 10.164062 -24.789062 10.882812 -25.828125 11.707031 -26.707031 C 12.585938 -27.640625 13.574219 -28.367188 14.675781 -28.890625 C 15.828125 -29.4375 17.054688 -29.710938 18.351562 -29.710938 Z M 12.128906 -13.5 C 12.128906 -11.644531 12.453125 -10.332031 13.105469 -9.5625 C 13.652344 -8.910156 14.582031 -8.585938 15.894531 -8.585938 C 16.941406 -8.585938 17.753906 -8.703125 18.324219 -8.933594 C 19.035156 -9.222656 19.628906 -9.53125 20.109375 -9.851562 L 21.816406 -11 C 22.742188 -11.625 23.789062 -11.9375 24.957031 -11.9375 C 25.644531 -11.9375 26.292969 -11.777344 26.90625 -11.457031 C 27.425781 -11.1875 27.886719 -10.832031 28.292969 -10.386719 L 28.324219 -10.347656 L 31.992188 -5.949219 L 30.445312 -4.402344 C 29.21875 -3.175781 28.019531 -2.117188 26.84375 -1.234375 C 25.625 -0.3125 24.351562 0.457031 23.027344 1.070312 C 21.683594 1.691406 20.28125 2.148438 18.820312 2.441406 C 17.386719 2.730469 15.828125 2.871094 14.136719 2.871094 C 11.886719 2.871094 9.8125 2.480469 7.925781 1.703125 C 6.015625 0.910156 4.375 -0.207031 3 -1.65625 C 1.640625 -3.097656 0.585938 -4.8125 -0.152344 -6.8125 C -0.882812 -8.769531 -1.246094 -10.9375 -1.246094 -13.308594 C -1.246094 -15.234375 -1.03125 -17.117188 -0.609375 -18.953125 C -0.183594 -20.789062 0.425781 -22.53125 1.230469 -24.183594 C 2.039062 -25.84375 3.019531 -27.375 4.171875 -28.765625 C 5.347656 -30.183594 6.6875 -31.40625 8.1875 -32.4375 C 9.695312 -33.46875 11.34375 -34.277344 13.125 -34.859375 C 14.929688 -35.449219 16.839844 -35.742188 18.859375 -35.742188 C 20.875 -35.742188 22.683594 -35.441406 24.28125 -34.839844 C 25.890625 -34.234375 27.253906 -33.433594 28.371094 -32.4375 C 29.507812 -31.421875 30.375 -30.277344 30.96875 -29 C 31.578125 -27.703125 31.882812 -26.386719 31.882812 -25.050781 C 31.882812 -23.21875 31.503906 -21.519531 30.75 -19.957031 C 29.960938 -18.324219 28.632812 -16.898438 26.773438 -15.6875 C 25.070312 -14.585938 22.824219 -13.652344 20.027344 -12.894531 C 17.347656 -12.171875 13.992188 -11.609375 9.96875 -11.214844 L 9.734375 -13.59375 L 12.128906 -13.59375 Z M 7.339844 -13.5 L 7.339844 -15.765625 L 9.5 -15.976562 C 13.261719 -16.347656 16.351562 -16.859375 18.777344 -17.515625 C 21.089844 -18.144531 22.882812 -18.871094 24.164062 -19.703125 C 25.277344 -20.429688 26.035156 -21.207031 26.4375 -22.039062 C 26.875 -22.945312 27.09375 -23.949219 27.09375 -25.050781 C 27.09375 -25.675781 26.941406 -26.316406 26.632812 -26.976562 C 26.316406 -27.65625 25.832031 -28.289062 25.179688 -28.867188 C 24.511719 -29.46875 23.648438 -29.964844 22.597656 -30.359375 C 21.539062 -30.757812 20.292969 -30.957031 18.859375 -30.957031 C 17.347656 -30.957031 15.933594 -30.742188 14.609375 -30.308594 C 13.261719 -29.867188 12.027344 -29.261719 10.894531 -28.488281 C 9.761719 -27.710938 8.746094 -26.785156 7.859375 -25.710938 C 6.949219 -24.613281 6.175781 -23.40625 5.535156 -22.089844 C 4.890625 -20.765625 4.398438 -19.359375 4.054688 -17.875 C 3.714844 -16.394531 3.542969 -14.871094 3.542969 -13.308594 C 3.542969 -11.507812 3.804688 -9.898438 4.335938 -8.476562 C 4.847656 -7.089844 5.5625 -5.914062 6.476562 -4.949219 C 7.382812 -3.996094 8.472656 -3.253906 9.753906 -2.722656 C 11.058594 -2.183594 12.519531 -1.914062 14.136719 -1.914062 C 15.511719 -1.914062 16.757812 -2.027344 17.882812 -2.25 C 18.972656 -2.46875 20.015625 -2.808594 21.011719 -3.273438 C 22.03125 -3.742188 23.011719 -4.335938 23.960938 -5.054688 C 24.957031 -5.804688 25.992188 -6.71875 27.0625 -7.789062 L 28.753906 -6.09375 L 26.914062 -4.5625 L 24.679688 -7.242188 L 26.519531 -8.777344 L 24.75 -7.167969 C 24.726562 -7.1875 24.710938 -7.203125 24.699219 -7.210938 C 24.777344 -7.167969 24.863281 -7.148438 24.957031 -7.148438 C 24.761719 -7.148438 24.605469 -7.109375 24.488281 -7.03125 L 22.78125 -5.878906 C 22.027344 -5.375 21.144531 -4.914062 20.132812 -4.5 C 18.980469 -4.03125 17.566406 -3.796875 15.894531 -3.796875 C 14.5625 -3.796875 13.371094 -4.003906 12.316406 -4.421875 C 11.175781 -4.875 10.214844 -5.558594 9.441406 -6.476562 C 8.042969 -8.140625 7.339844 -10.480469 7.339844 -13.5 Z M 7.339844 -13.5 "/></g></g><g style="fill:#ffa821;fill-opacity:1;"><g transform="translate(264.529017, 169.124233)"><path style="stroke:none" d="M 25.21875 -25.011719 C 24.789062 -24.402344 24.324219 -23.933594 23.824219 -23.605469 C 23.179688 -23.1875 22.441406 -22.976562 21.605469 -22.976562 C 20.796875 -22.976562 20.019531 -23.179688 19.269531 -23.585938 C 18.898438 -23.785156 18.480469 -24.003906 18.015625 -24.234375 C 17.621094 -24.429688 17.164062 -24.617188 16.640625 -24.796875 C 16.261719 -24.925781 15.777344 -24.988281 15.191406 -24.988281 C 14.617188 -24.988281 14.140625 -24.933594 13.765625 -24.824219 C 13.515625 -24.753906 13.332031 -24.664062 13.210938 -24.5625 C 13.078125 -24.445312 12.988281 -24.332031 12.9375 -24.21875 C 12.886719 -24.109375 12.859375 -23.972656 12.859375 -23.808594 C 12.859375 -23.746094 12.863281 -23.707031 12.871094 -23.695312 C 12.867188 -23.699219 12.863281 -23.703125 12.863281 -23.707031 C 12.871094 -23.699219 12.882812 -23.6875 12.898438 -23.671875 C 13.339844 -23.316406 13.925781 -22.984375 14.652344 -22.679688 C 15.554688 -22.296875 16.535156 -21.910156 17.589844 -21.519531 C 18.855469 -21.046875 20.039062 -20.4375 21.136719 -19.691406 C 22.351562 -18.859375 23.359375 -17.800781 24.152344 -16.511719 C 25.007812 -15.125 25.433594 -13.429688 25.433594 -11.425781 C 25.433594 -9.472656 25.046875 -7.617188 24.273438 -5.863281 C 23.5 -4.105469 22.382812 -2.570312 20.925781 -1.253906 C 19.5 0.0351562 17.792969 1.050781 15.808594 1.792969 C 13.835938 2.535156 11.652344 2.902344 9.253906 2.902344 C 8.050781 2.902344 6.875 2.785156 5.726562 2.550781 C 4.582031 2.320312 3.496094 1.984375 2.46875 1.550781 C 1.4375 1.117188 0.496094 0.609375 -0.347656 0.0273438 C -1.238281 -0.582031 -1.992188 -1.253906 -2.621094 -1.992188 L -3.785156 -3.359375 L -0.625 -8.148438 C -0.164062 -8.84375 0.40625 -9.386719 1.085938 -9.785156 C 1.820312 -10.21875 2.660156 -10.4375 3.605469 -10.4375 C 4.574219 -10.4375 5.453125 -10.160156 6.25 -9.609375 C 6.613281 -9.355469 7.023438 -9.078125 7.476562 -8.78125 C 7.816406 -8.558594 8.238281 -8.34375 8.742188 -8.136719 C 9.101562 -7.988281 9.644531 -7.914062 10.371094 -7.914062 C 10.898438 -7.914062 11.34375 -7.976562 11.707031 -8.09375 C 12.019531 -8.199219 12.269531 -8.328125 12.449219 -8.480469 C 12.578125 -8.589844 12.667969 -8.707031 12.722656 -8.832031 C 12.792969 -8.996094 12.828125 -9.167969 12.828125 -9.351562 C 12.828125 -9.535156 12.808594 -9.644531 12.769531 -9.675781 C 12.339844 -10.035156 11.773438 -10.359375 11.070312 -10.648438 C 10.195312 -11.011719 9.242188 -11.363281 8.210938 -11.707031 C 6.921875 -12.136719 5.726562 -12.71875 4.625 -13.453125 C 3.414062 -14.261719 2.410156 -15.296875 1.613281 -16.5625 C 0.75 -17.933594 0.320312 -19.664062 0.320312 -21.765625 C 0.320312 -23.566406 0.660156 -25.304688 1.339844 -26.988281 C 2.023438 -28.679688 3.023438 -30.183594 4.339844 -31.5 C 5.652344 -32.8125 7.257812 -33.855469 9.160156 -34.636719 C 11.058594 -35.417969 13.214844 -35.808594 15.636719 -35.808594 C 18.121094 -35.808594 20.351562 -35.371094 22.328125 -34.503906 C 24.28125 -33.644531 25.917969 -32.542969 27.238281 -31.195312 L 28.65625 -29.753906 L 25.203125 -24.988281 Z M 21.328125 -27.796875 L 23.59375 -30.925781 L 25.53125 -29.519531 L 23.824219 -27.84375 C 22.929688 -28.75 21.792969 -29.511719 20.402344 -30.121094 C 19.039062 -30.71875 17.453125 -31.019531 15.636719 -31.019531 C 13.847656 -31.019531 12.292969 -30.75 10.976562 -30.210938 C 9.667969 -29.671875 8.582031 -28.972656 7.722656 -28.113281 C 6.867188 -27.257812 6.21875 -26.285156 5.777344 -25.191406 C 5.328125 -24.085938 5.105469 -22.945312 5.105469 -21.765625 C 5.105469 -20.589844 5.292969 -19.703125 5.664062 -19.117188 C 6.097656 -18.425781 6.636719 -17.867188 7.28125 -17.4375 C 8.027344 -16.9375 8.84375 -16.542969 9.726562 -16.25 C 10.863281 -15.871094 11.921875 -15.476562 12.898438 -15.074219 C 14.046875 -14.597656 15.019531 -14.027344 15.824219 -13.363281 C 16.429688 -12.863281 16.886719 -12.253906 17.191406 -11.535156 C 17.476562 -10.871094 17.617188 -10.144531 17.617188 -9.351562 C 17.617188 -8.511719 17.449219 -7.703125 17.117188 -6.933594 C 16.765625 -6.121094 16.242188 -5.417969 15.539062 -4.828125 C 14.890625 -4.277344 14.117188 -3.851562 13.21875 -3.554688 C 12.367188 -3.269531 11.417969 -3.128906 10.371094 -3.128906 C 9.015625 -3.128906 7.867188 -3.320312 6.925781 -3.707031 C 6.132812 -4.03125 5.441406 -4.390625 4.84375 -4.78125 C 4.359375 -5.101562 3.917969 -5.398438 3.515625 -5.675781 C 3.546875 -5.65625 3.574219 -5.648438 3.605469 -5.648438 C 3.542969 -5.648438 3.496094 -5.644531 3.464844 -5.636719 C 3.472656 -5.640625 3.488281 -5.648438 3.511719 -5.660156 C 3.464844 -5.632812 3.417969 -5.582031 3.371094 -5.511719 L 1.199219 -2.222656 L -0.796875 -3.542969 L 1.023438 -5.09375 C 1.375 -4.679688 1.820312 -4.289062 2.359375 -3.921875 C 2.9375 -3.523438 3.59375 -3.167969 4.328125 -2.859375 C 5.066406 -2.550781 5.851562 -2.308594 6.6875 -2.136719 C 7.515625 -1.96875 8.375 -1.882812 9.253906 -1.882812 C 11.070312 -1.882812 12.695312 -2.152344 14.128906 -2.6875 C 15.546875 -3.21875 16.742188 -3.925781 17.71875 -4.808594 C 18.667969 -5.664062 19.394531 -6.660156 19.894531 -7.796875 C 20.398438 -8.933594 20.648438 -10.144531 20.648438 -11.425781 C 20.648438 -12.527344 20.457031 -13.382812 20.078125 -13.996094 C 19.640625 -14.707031 19.09375 -15.289062 18.4375 -15.734375 C 17.660156 -16.261719 16.824219 -16.695312 15.917969 -17.03125 C 14.804688 -17.449219 13.761719 -17.859375 12.796875 -18.265625 C 11.648438 -18.746094 10.679688 -19.308594 9.886719 -19.953125 C 9.289062 -20.4375 8.835938 -21.011719 8.527344 -21.679688 C 8.226562 -22.332031 8.074219 -23.039062 8.074219 -23.808594 C 8.074219 -24.664062 8.242188 -25.464844 8.582031 -26.207031 C 8.917969 -26.941406 9.410156 -27.59375 10.054688 -28.160156 C 11.28125 -29.238281 12.996094 -29.777344 15.191406 -29.777344 C 16.304688 -29.777344 17.300781 -29.625 18.175781 -29.328125 C 18.910156 -29.082031 19.566406 -28.8125 20.15625 -28.515625 C 20.667969 -28.261719 21.132812 -28.019531 21.546875 -27.796875 C 21.578125 -27.78125 21.601562 -27.769531 21.621094 -27.765625 C 21.617188 -27.765625 21.613281 -27.765625 21.605469 -27.765625 C 21.492188 -27.765625 21.359375 -27.714844 21.207031 -27.617188 C 21.183594 -27.601562 21.164062 -27.585938 21.148438 -27.574219 C 21.148438 -27.570312 21.148438 -27.570312 21.148438 -27.570312 C 21.148438 -27.574219 21.152344 -27.578125 21.160156 -27.582031 C 21.199219 -27.625 21.25 -27.691406 21.308594 -27.773438 Z M 21.328125 -27.796875 "/></g></g><g style="fill:#ffa821;fill-opacity:1;"><g transform="translate(290.538053, 169.124233)"><path style="stroke:none" d="M 1.5 -6.894531 L 1.5 -7.421875 C 1.5 -7.6875 1.519531 -8.050781 1.554688 -8.507812 C 1.589844 -8.925781 1.644531 -9.476562 1.722656 -10.148438 L 2.027344 -12.699219 L 3.785156 -26.878906 L 6.160156 -26.585938 L 6.160156 -24.191406 L 3.285156 -24.191406 C 2.746094 -24.191406 2.238281 -24.292969 1.761719 -24.496094 C 1.265625 -24.710938 0.832031 -25.023438 0.464844 -25.4375 C -0.296875 -26.289062 -0.582031 -27.378906 -0.390625 -28.710938 L 1.980469 -28.371094 L -0.398438 -28.65625 L 0.226562 -33.839844 L 6.921875 -35.125 L 7.371094 -32.773438 L 5.089844 -33.5 L 7.804688 -42.023438 C 8.105469 -42.992188 8.628906 -43.75 9.375 -44.300781 C 10.121094 -44.851562 11.007812 -45.125 12.03125 -45.125 L 19.464844 -45.125 L 17.886719 -32.417969 L 15.511719 -32.710938 L 15.511719 -35.105469 L 25.898438 -35.105469 L 24.589844 -24.191406 L 14.777344 -24.191406 L 14.777344 -26.585938 L 17.152344 -26.289062 L 15.460938 -12.601562 L 15.203125 -10.527344 L 15.0625 -9.347656 C 15.050781 -9.242188 15.039062 -9.15625 15.035156 -9.085938 L 15.03125 -9.078125 L 15.03125 -8.871094 C 15.03125 -8.726562 15.042969 -8.613281 15.066406 -8.535156 C 15.066406 -8.527344 15.070312 -8.523438 15.070312 -8.519531 C 15.070312 -8.519531 15.070312 -8.519531 15.066406 -8.523438 C 15.058594 -8.539062 15.050781 -8.554688 15.035156 -8.574219 C 14.953125 -8.679688 14.851562 -8.757812 14.726562 -8.8125 C 14.691406 -8.828125 14.660156 -8.835938 14.632812 -8.84375 C 14.640625 -8.839844 14.65625 -8.839844 14.679688 -8.839844 C 14.757812 -8.839844 14.820312 -8.84375 14.871094 -8.851562 C 14.882812 -8.851562 14.894531 -8.855469 14.902344 -8.855469 C 14.898438 -8.855469 14.894531 -8.855469 14.886719 -8.851562 C 15.019531 -8.898438 15.117188 -8.941406 15.1875 -8.980469 C 15.398438 -9.101562 15.59375 -9.214844 15.773438 -9.316406 C 16.308594 -9.617188 16.878906 -9.765625 17.488281 -9.765625 C 18.386719 -9.765625 19.128906 -9.496094 19.710938 -8.960938 C 20.078125 -8.628906 20.390625 -8.175781 20.652344 -7.609375 L 23.355469 -1.660156 L 21.859375 -0.503906 C 20.410156 0.621094 18.824219 1.472656 17.097656 2.046875 C 15.382812 2.617188 13.652344 2.902344 11.902344 2.902344 C 8.855469 2.902344 6.390625 2.039062 4.519531 0.304688 C 2.617188 -1.453125 1.609375 -3.824219 1.5 -6.804688 Z M 6.285156 -6.894531 L 3.894531 -6.894531 L 6.285156 -6.980469 C 6.347656 -5.324219 6.839844 -4.066406 7.769531 -3.210938 C 8.726562 -2.324219 10.101562 -1.882812 11.902344 -1.882812 C 13.132812 -1.882812 14.359375 -2.085938 15.582031 -2.496094 C 16.792969 -2.898438 17.90625 -3.496094 18.925781 -4.285156 L 20.394531 -2.394531 L 18.214844 -1.402344 L 16.304688 -5.601562 C 16.292969 -5.628906 16.285156 -5.648438 16.277344 -5.664062 L 16.277344 -5.660156 C 16.324219 -5.585938 16.390625 -5.511719 16.476562 -5.433594 C 16.6875 -5.238281 16.925781 -5.105469 17.183594 -5.027344 C 17.296875 -4.996094 17.402344 -4.976562 17.488281 -4.976562 C 17.714844 -4.976562 17.925781 -5.03125 18.121094 -5.140625 C 17.957031 -5.050781 17.78125 -4.949219 17.585938 -4.835938 C 17.253906 -4.644531 16.875 -4.472656 16.453125 -4.328125 C 15.921875 -4.144531 15.332031 -4.054688 14.679688 -4.054688 C 14.011719 -4.054688 13.402344 -4.171875 12.847656 -4.410156 C 12.214844 -4.679688 11.683594 -5.085938 11.261719 -5.628906 C 10.582031 -6.496094 10.246094 -7.578125 10.246094 -8.871094 L 10.246094 -9.078125 C 10.246094 -9.265625 10.265625 -9.550781 10.308594 -9.925781 L 10.453125 -11.109375 L 10.710938 -13.1875 L 12.660156 -28.976562 L 22.46875 -28.976562 L 22.46875 -26.585938 L 20.089844 -26.867188 L 20.824219 -32.996094 L 23.203125 -32.710938 L 23.203125 -30.316406 L 12.800781 -30.316406 L 14.378906 -43.027344 L 16.753906 -42.730469 L 16.753906 -40.339844 L 12.03125 -40.339844 C 12.011719 -40.339844 11.996094 -40.339844 11.984375 -40.335938 C 11.992188 -40.335938 12 -40.339844 12.015625 -40.34375 C 12.082031 -40.363281 12.148438 -40.398438 12.214844 -40.445312 C 12.28125 -40.496094 12.335938 -40.550781 12.371094 -40.605469 C 12.378906 -40.617188 12.382812 -40.625 12.386719 -40.632812 C 12.382812 -40.621094 12.375 -40.601562 12.367188 -40.570312 L 9.222656 -30.695312 L 2.84375 -29.46875 L 2.394531 -31.816406 L 4.769531 -31.53125 L 4.351562 -28.058594 L 4.347656 -28.03125 C 4.34375 -28 4.339844 -27.976562 4.339844 -27.964844 C 4.339844 -27.988281 4.335938 -28.023438 4.328125 -28.0625 C 4.289062 -28.265625 4.191406 -28.453125 4.035156 -28.625 C 3.933594 -28.738281 3.808594 -28.828125 3.65625 -28.894531 C 3.527344 -28.949219 3.402344 -28.976562 3.285156 -28.976562 L 8.867188 -28.976562 L 6.78125 -12.128906 L 6.480469 -9.605469 C 6.40625 -8.980469 6.355469 -8.488281 6.328125 -8.121094 C 6.300781 -7.789062 6.285156 -7.558594 6.285156 -7.421875 Z M 6.285156 -6.894531 "/></g></g><g style="fill:#000000;fill-opacity:1;"><g transform="translate(209.574942, 169.124233)"><path style="stroke:none" d="M 3.890625 -6.890625 C 3.890625 -7.035156 3.890625 -7.207031 3.890625 -7.40625 C 3.890625 -7.613281 3.90625 -7.914062 3.9375 -8.3125 C 3.96875 -8.707031 4.019531 -9.226562 4.09375 -9.875 C 4.175781 -10.519531 4.28125 -11.367188 4.40625 -12.421875 L 6.15625 -26.578125 L 3.28125 -26.578125 C 2.863281 -26.578125 2.519531 -26.726562 2.25 -27.03125 C 1.976562 -27.332031 1.890625 -27.78125 1.984375 -28.375 L 2.390625 -31.8125 L 7.375 -32.78125 L 10.078125 -41.296875 C 10.378906 -42.253906 11.03125 -42.734375 12.03125 -42.734375 L 16.75 -42.734375 L 15.515625 -32.71875 L 23.203125 -32.71875 L 22.46875 -26.578125 L 14.78125 -26.578125 L 13.078125 -12.890625 C 12.972656 -12.015625 12.890625 -11.320312 12.828125 -10.8125 C 12.765625 -10.300781 12.71875 -9.90625 12.6875 -9.625 C 12.65625 -9.351562 12.640625 -9.171875 12.640625 -9.078125 C 12.640625 -8.984375 12.640625 -8.914062 12.640625 -8.875 C 12.640625 -8.125 12.804688 -7.53125 13.140625 -7.09375 C 13.484375 -6.664062 14 -6.453125 14.6875 -6.453125 C 15.0625 -6.453125 15.382812 -6.5 15.65625 -6.59375 C 15.9375 -6.6875 16.175781 -6.789062 16.375 -6.90625 C 16.582031 -7.019531 16.769531 -7.125 16.9375 -7.21875 C 17.113281 -7.320312 17.296875 -7.375 17.484375 -7.375 C 17.765625 -7.375 17.96875 -7.3125 18.09375 -7.1875 C 18.21875 -7.070312 18.347656 -6.878906 18.484375 -6.609375 L 20.390625 -2.390625 C 19.160156 -1.429688 17.8125 -0.707031 16.34375 -0.21875 C 14.875 0.269531 13.394531 0.515625 11.90625 0.515625 C 9.476562 0.515625 7.554688 -0.140625 6.140625 -1.453125 C 4.722656 -2.765625 3.972656 -4.578125 3.890625 -6.890625 Z M 3.890625 -6.890625 "/></g></g><g style="fill:#000000;fill-opacity:1;"><g transform="translate(233.222424, 169.124233)"><path style="stroke:none" d="M 18.34375 -27.3125 C 17.414062 -27.3125 16.535156 -27.113281 15.703125 -26.71875 C 14.867188 -26.332031 14.117188 -25.78125 13.453125 -25.0625 C 12.785156 -24.351562 12.195312 -23.5 11.6875 -22.5 C 11.175781 -21.5 10.757812 -20.378906 10.4375 -19.140625 C 12.800781 -19.484375 14.707031 -19.851562 16.15625 -20.25 C 17.613281 -20.644531 18.742188 -21.070312 19.546875 -21.53125 C 20.347656 -21.988281 20.878906 -22.484375 21.140625 -23.015625 C 21.410156 -23.546875 21.546875 -24.117188 21.546875 -24.734375 C 21.546875 -25.035156 21.476562 -25.335938 21.34375 -25.640625 C 21.21875 -25.953125 21.023438 -26.226562 20.765625 -26.46875 C 20.515625 -26.71875 20.1875 -26.921875 19.78125 -27.078125 C 19.382812 -27.234375 18.90625 -27.3125 18.34375 -27.3125 Z M 9.734375 -13.5 C 9.734375 -8.625 11.785156 -6.1875 15.890625 -6.1875 C 17.253906 -6.1875 18.363281 -6.363281 19.21875 -6.71875 C 20.082031 -7.070312 20.820312 -7.453125 21.4375 -7.859375 C 22.0625 -8.273438 22.632812 -8.660156 23.15625 -9.015625 C 23.675781 -9.367188 24.273438 -9.546875 24.953125 -9.546875 C 25.253906 -9.546875 25.535156 -9.472656 25.796875 -9.328125 C 26.066406 -9.191406 26.304688 -9.007812 26.515625 -8.78125 L 28.75 -6.09375 C 27.601562 -4.945312 26.488281 -3.960938 25.40625 -3.140625 C 24.320312 -2.328125 23.191406 -1.644531 22.015625 -1.09375 C 20.847656 -0.550781 19.625 -0.15625 18.34375 0.09375 C 17.070312 0.351562 15.671875 0.484375 14.140625 0.484375 C 12.203125 0.484375 10.4375 0.15625 8.84375 -0.5 C 7.25 -1.164062 5.878906 -2.097656 4.734375 -3.296875 C 3.597656 -4.503906 2.71875 -5.953125 2.09375 -7.640625 C 1.46875 -9.335938 1.15625 -11.226562 1.15625 -13.3125 C 1.15625 -15.050781 1.34375 -16.75 1.71875 -18.40625 C 2.101562 -20.070312 2.65625 -21.648438 3.375 -23.140625 C 4.101562 -24.628906 4.984375 -25.992188 6.015625 -27.234375 C 7.046875 -28.484375 8.21875 -29.554688 9.53125 -30.453125 C 10.851562 -31.359375 12.296875 -32.066406 13.859375 -32.578125 C 15.429688 -33.085938 17.097656 -33.34375 18.859375 -33.34375 C 20.585938 -33.34375 22.113281 -33.09375 23.4375 -32.59375 C 24.769531 -32.09375 25.878906 -31.441406 26.765625 -30.640625 C 27.660156 -29.847656 28.335938 -28.960938 28.796875 -27.984375 C 29.253906 -27.003906 29.484375 -26.023438 29.484375 -25.046875 C 29.484375 -23.578125 29.1875 -22.222656 28.59375 -20.984375 C 28 -19.753906 26.957031 -18.65625 25.46875 -17.6875 C 23.976562 -16.726562 21.957031 -15.898438 19.40625 -15.203125 C 16.851562 -14.515625 13.628906 -13.976562 9.734375 -13.59375 Z M 9.734375 -13.5 "/></g></g><g style="fill:#000000;fill-opacity:1;"><g transform="translate(264.529017, 169.124233)"><path style="stroke:none" d="M 23.265625 -26.390625 C 23.003906 -26.023438 22.75 -25.765625 22.5 -25.609375 C 22.257812 -25.453125 21.960938 -25.375 21.609375 -25.375 C 21.203125 -25.375 20.800781 -25.476562 20.40625 -25.6875 C 20.007812 -25.90625 19.566406 -26.132812 19.078125 -26.375 C 18.585938 -26.625 18.03125 -26.851562 17.40625 -27.0625 C 16.78125 -27.269531 16.039062 -27.375 15.1875 -27.375 C 13.59375 -27.375 12.40625 -27.035156 11.625 -26.359375 C 10.851562 -25.679688 10.46875 -24.832031 10.46875 -23.8125 C 10.46875 -22.976562 10.773438 -22.3125 11.390625 -21.8125 C 12.003906 -21.3125 12.78125 -20.863281 13.71875 -20.46875 C 14.65625 -20.070312 15.664062 -19.671875 16.75 -19.265625 C 17.832031 -18.867188 18.84375 -18.347656 19.78125 -17.703125 C 20.71875 -17.066406 21.492188 -16.25 22.109375 -15.25 C 22.734375 -14.25 23.046875 -12.972656 23.046875 -11.421875 C 23.046875 -9.804688 22.722656 -8.273438 22.078125 -6.828125 C 21.441406 -5.378906 20.519531 -4.113281 19.3125 -3.03125 C 18.113281 -1.945312 16.664062 -1.082031 14.96875 -0.4375 C 13.269531 0.195312 11.363281 0.515625 9.25 0.515625 C 8.207031 0.515625 7.191406 0.410156 6.203125 0.203125 C 5.210938 0.00390625 4.273438 -0.28125 3.390625 -0.65625 C 2.515625 -1.03125 1.71875 -1.460938 1 -1.953125 C 0.289062 -2.441406 -0.304688 -2.972656 -0.796875 -3.546875 L 1.375 -6.828125 C 1.625 -7.210938 1.929688 -7.507812 2.296875 -7.71875 C 2.660156 -7.9375 3.097656 -8.046875 3.609375 -8.046875 C 4.078125 -8.046875 4.5 -7.910156 4.875 -7.640625 C 5.257812 -7.378906 5.6875 -7.09375 6.15625 -6.78125 C 6.625 -6.46875 7.179688 -6.175781 7.828125 -5.90625 C 8.484375 -5.644531 9.332031 -5.515625 10.375 -5.515625 C 11.15625 -5.515625 11.847656 -5.613281 12.453125 -5.8125 C 13.066406 -6.019531 13.578125 -6.300781 13.984375 -6.65625 C 14.398438 -7.007812 14.707031 -7.414062 14.90625 -7.875 C 15.113281 -8.34375 15.21875 -8.832031 15.21875 -9.34375 C 15.21875 -10.28125 14.910156 -11.003906 14.296875 -11.515625 C 13.679688 -12.023438 12.910156 -12.472656 11.984375 -12.859375 C 11.054688 -13.242188 10.050781 -13.613281 8.96875 -13.96875 C 7.882812 -14.332031 6.878906 -14.820312 5.953125 -15.4375 C 5.023438 -16.0625 4.253906 -16.863281 3.640625 -17.84375 C 3.023438 -18.820312 2.71875 -20.128906 2.71875 -21.765625 C 2.71875 -23.253906 3 -24.695312 3.5625 -26.09375 C 4.125 -27.488281 4.945312 -28.726562 6.03125 -29.8125 C 7.113281 -30.894531 8.457031 -31.765625 10.0625 -32.421875 C 11.675781 -33.078125 13.535156 -33.40625 15.640625 -33.40625 C 17.785156 -33.40625 19.691406 -33.039062 21.359375 -32.3125 C 23.035156 -31.582031 24.425781 -30.648438 25.53125 -29.515625 Z M 23.265625 -26.390625 "/></g></g><g style="fill:#000000;fill-opacity:1;"><g transform="translate(290.538053, 169.124233)"><path style="stroke:none" d="M 3.890625 -6.890625 C 3.890625 -7.035156 3.890625 -7.207031 3.890625 -7.40625 C 3.890625 -7.613281 3.90625 -7.914062 3.9375 -8.3125 C 3.96875 -8.707031 4.019531 -9.226562 4.09375 -9.875 C 4.175781 -10.519531 4.28125 -11.367188 4.40625 -12.421875 L 6.15625 -26.578125 L 3.28125 -26.578125 C 2.863281 -26.578125 2.519531 -26.726562 2.25 -27.03125 C 1.976562 -27.332031 1.890625 -27.78125 1.984375 -28.375 L 2.390625 -31.8125 L 7.375 -32.78125 L 10.078125 -41.296875 C 10.378906 -42.253906 11.03125 -42.734375 12.03125 -42.734375 L 16.75 -42.734375 L 15.515625 -32.71875 L 23.203125 -32.71875 L 22.46875 -26.578125 L 14.78125 -26.578125 L 13.078125 -12.890625 C 12.972656 -12.015625 12.890625 -11.320312 12.828125 -10.8125 C 12.765625 -10.300781 12.71875 -9.90625 12.6875 -9.625 C 12.65625 -9.351562 12.640625 -9.171875 12.640625 -9.078125 C 12.640625 -8.984375 12.640625 -8.914062 12.640625 -8.875 C 12.640625 -8.125 12.804688 -7.53125 13.140625 -7.09375 C 13.484375 -6.664062 14 -6.453125 14.6875 -6.453125 C 15.0625 -6.453125 15.382812 -6.5 15.65625 -6.59375 C 15.9375 -6.6875 16.175781 -6.789062 16.375 -6.90625 C 16.582031 -7.019531 16.769531 -7.125 16.9375 -7.21875 C 17.113281 -7.320312 17.296875 -7.375 17.484375 -7.375 C 17.765625 -7.375 17.96875 -7.3125 18.09375 -7.1875 C 18.21875 -7.070312 18.347656 -6.878906 18.484375 -6.609375 L 20.390625 -2.390625 C 19.160156 -1.429688 17.8125 -0.707031 16.34375 -0.21875 C 14.875 0.269531 13.394531 0.515625 11.90625 0.515625 C 9.476562 0.515625 7.554688 -0.140625 6.140625 -1.453125 C 4.722656 -2.765625 3.972656 -4.578125 3.890625 -6.890625 Z M 3.890625 -6.890625 "/></g></g></g></svg>